<svg xmlns="http://www.w3.org/2000/svg" viewBox="0 0 650 700" width="650" height="700">
<rect width="650" height="700" fill="white"/>
<g transform="translate(0,0)">
<rect x="70" y="40" width="550" height="255" fill="#fafafa" stroke="#ccc" stroke-width="1"/>
<line x1="70.0" y1="40" x2="70.0" y2="295" stroke="#e5e7eb" stroke-width="0.5"/>
<text x="70.0" y="310" text-anchor="middle" font-size="11" fill="#555" font-family="Helvetica,Arial,sans-serif">3.0e-03</text>
<line x1="180.0" y1="40" x2="180.0" y2="295" stroke="#e5e7eb" stroke-width="0.5"/>
<text x="180.0" y="310" text-anchor="middle" font-size="11" fill="#555" font-family="Helvetica,Arial,sans-serif">3.0e-02</text>
<line x1="290.0" y1="40" x2="290.0" y2="295" stroke="#e5e7eb" stroke-width="0.5"/>
<text x="290.0" y="310" text-anchor="middle" font-size="11" fill="#555" font-family="Helvetica,Arial,sans-serif">0.3</text>
<line x1="400.0" y1="40" x2="400.0" y2="295" stroke="#e5e7eb" stroke-width="0.5"/>
<text x="400.0" y="310" text-anchor="middle" font-size="11" fill="#555" font-family="Helvetica,Arial,sans-serif">3.0</text>
<line x1="510.0" y1="40" x2="510.0" y2="295" stroke="#e5e7eb" stroke-width="0.5"/>
<text x="510.0" y="310" text-anchor="middle" font-size="11" fill="#555" font-family="Helvetica,Arial,sans-serif">30.0</text>
<line x1="620.0" y1="40" x2="620.0" y2="295" stroke="#e5e7eb" stroke-width="0.5"/>
<text x="620.0" y="310" text-anchor="middle" font-size="11" fill="#555" font-family="Helvetica,Arial,sans-serif">3.0e+02</text>
<line x1="70" y1="295.0" x2="620" y2="295.0" stroke="#e5e7eb" stroke-width="0.5"/>
<text x="62" y="299.0" text-anchor="end" font-size="11" fill="#555" font-family="Helvetica,Arial,sans-serif">1.4</text>
<line x1="70" y1="244.0" x2="620" y2="244.0" stroke="#e5e7eb" stroke-width="0.5"/>
<text x="62" y="248.0" text-anchor="end" font-size="11" fill="#555" font-family="Helvetica,Arial,sans-serif">2.3</text>
<line x1="70" y1="193.0" x2="620" y2="193.0" stroke="#e5e7eb" stroke-width="0.5"/>
<text x="62" y="197.0" text-anchor="end" font-size="11" fill="#555" font-family="Helvetica,Arial,sans-serif">3.7</text>
<line x1="70" y1="142.0" x2="620" y2="142.0" stroke="#e5e7eb" stroke-width="0.5"/>
<text x="62" y="146.0" text-anchor="end" font-size="11" fill="#555" font-family="Helvetica,Arial,sans-serif">5.9</text>
<line x1="70" y1="91.0" x2="620" y2="91.0" stroke="#e5e7eb" stroke-width="0.5"/>
<text x="62" y="95.0" text-anchor="end" font-size="11" fill="#555" font-family="Helvetica,Arial,sans-serif">9.4</text>
<line x1="70" y1="40.0" x2="620" y2="40.0" stroke="#e5e7eb" stroke-width="0.5"/>
<text x="62" y="44.0" text-anchor="end" font-size="11" fill="#555" font-family="Helvetica,Arial,sans-serif">15</text>
<rect x="70" y="40" width="550" height="255" fill="none" stroke="#333" stroke-width="1.5"/>
<text x="345.0" y="337" text-anchor="middle" font-size="13" font-weight="bold" fill="#333" font-family="Helvetica,Arial,sans-serif">Frequency (Hz)</text>
<text x="20" y="167.5" text-anchor="middle" font-size="13" font-weight="bold" fill="#333" font-family="Helvetica,Arial,sans-serif" transform="rotate(-90,20,167.5)">Storage Modulus G' (Pa)</text>
<text x="345.0" y="28" text-anchor="middle" font-size="15" font-weight="bold" fill="#222" font-family="Helvetica,Arial,sans-serif">Frequency Sweep: Storage Modulus</text>
<polyline points="70.0,183.7 79.2,183.7 88.3,183.7 97.5,183.6 106.7,183.6 115.8,183.6 125.0,183.6 134.2,183.6 143.3,183.5 152.5,183.4 161.7,183.3 170.8,183.2 180.0,183.0 189.2,182.6 198.3,182.1 207.5,181.5 216.7,180.5 225.8,179.1 235.0,177.2 244.2,174.6 253.3,171.2 262.5,167.0 271.7,162.0 280.8,156.4 290.0,150.6 299.2,144.9 308.3,139.7 317.5,135.2 326.7,131.5 335.8,128.6 345.0,126.2 354.2,124.2 363.3,122.5 372.5,120.9 381.7,119.3 390.8,117.7 400.0,116.1 409.2,114.5 418.3,113.1 427.5,111.9 436.7,110.9 445.8,110.2 455.0,109.6 464.2,109.1 473.3,108.8 482.5,108.6 491.7,108.5 500.8,108.4 510.0,108.3 519.2,108.2 528.3,108.2 537.5,108.2 546.7,108.2 555.8,108.2 565.0,108.2 574.2,108.1 583.3,108.1 592.5,108.1 601.7,108.1 610.8,108.1 620.0,108.1" fill="none" stroke="#2563eb" stroke-width="2" stroke-linecap="round" stroke-linejoin="round"/>
<polyline points="70.0,139.5 79.2,139.5 88.3,139.5 97.5,139.5 106.7,139.5 115.8,139.4 125.0,139.4 134.2,139.4 143.3,139.3 152.5,139.3 161.7,139.2 170.8,139.0 180.0,138.8 189.2,138.6 198.3,138.1 207.5,137.5 216.7,136.6 225.8,135.4 235.0,133.7 244.2,131.4 253.3,128.4 262.5,124.6 271.7,120.0 280.8,114.9 290.0,109.6 299.2,104.3 308.3,99.6 317.5,95.4 326.7,92.0 335.8,89.2 345.0,86.9 354.2,85.0 363.3,83.4 372.5,81.8 381.7,80.1 390.8,78.5 400.0,76.8 409.2,75.2 418.3,73.8 427.5,72.5 436.7,71.5 445.8,70.7 455.0,70.1 464.2,69.6 473.3,69.3 482.5,69.1 491.7,68.9 500.8,68.8 510.0,68.8 519.2,68.7 528.3,68.7 537.5,68.6 546.7,68.6 555.8,68.6 565.0,68.6 574.2,68.6 583.3,68.6 592.5,68.6 601.7,68.6 610.8,68.6 620.0,68.6" fill="none" stroke="#dc2626" stroke-width="2" stroke-linecap="round" stroke-linejoin="round"/>
<polyline points="70.0,259.2 79.2,259.2 88.3,259.2 97.5,259.2 106.7,259.2 115.8,259.2 125.0,259.1 134.2,259.1 143.3,259.1 152.5,259.0 161.7,258.9 170.8,258.7 180.0,258.5 189.2,258.2 198.3,257.7 207.5,257.0 216.7,256.0 225.8,254.6 235.0,252.7 244.2,250.1 253.3,246.8 262.5,242.5 271.7,237.5 280.8,231.9 290.0,226.1 299.2,220.4 308.3,215.2 317.5,210.8 326.7,207.1 335.8,204.1 345.0,201.7 354.2,199.8 363.3,198.0 372.5,196.4 381.7,194.8 390.8,193.2 400.0,191.6 409.2,190.1 418.3,188.7 427.5,187.5 436.7,186.5 445.8,185.7 455.0,185.1 464.2,184.7 473.3,184.4 482.5,184.2 491.7,184.0 500.8,183.9 510.0,183.8 519.2,183.8 528.3,183.7 537.5,183.7 546.7,183.7 555.8,183.7 565.0,183.7 574.2,183.7 583.3,183.7 592.5,183.7 601.7,183.7 610.8,183.7 620.0,183.7" fill="none" stroke="#16a34a" stroke-width="2" stroke-linecap="round" stroke-linejoin="round"/>
<polyline points="70.0,270.7 79.2,270.7 88.3,270.7 97.5,270.7 106.7,270.7 115.8,270.6 125.0,270.6 134.2,270.6 143.3,270.6 152.5,270.5 161.7,270.4 170.8,270.3 180.0,270.0 189.2,269.8 198.3,269.3 207.5,268.7 216.7,267.8 225.8,266.6 235.0,264.9 244.2,262.6 253.3,259.6 262.5,255.8 271.7,251.2 280.8,246.1 290.0,240.8 299.2,235.6 308.3,230.8 317.5,226.7 326.7,223.3 335.8,220.5 345.0,218.3 354.2,216.5 363.3,214.9 372.5,213.3 381.7,211.9 390.8,210.4 400.0,208.9 409.2,207.4 418.3,206.1 427.5,204.9 436.7,204.0 445.8,203.3 455.0,202.7 464.2,202.3 473.3,202.0 482.5,201.8 491.7,201.7 500.8,201.6 510.0,201.5 519.2,201.5 528.3,201.5 537.5,201.4 546.7,201.4 555.8,201.4 565.0,201.4 574.2,201.4 583.3,201.4 592.5,201.4 601.7,201.4 610.8,201.4 620.0,201.4" fill="none" stroke="#9333ea" stroke-width="2" stroke-linecap="round" stroke-linejoin="round"/>
<rect x="460" y="43" width="150" height="90" fill="white" fill-opacity="0.9" stroke="#ccc" rx="3"/>
<line x1="468" y1="55" x2="485" y2="55" stroke="#2563eb" stroke-width="2.5"/>
<text x="492" y="59" font-size="11" fill="#333" font-family="Helvetica,Arial,sans-serif">Uniaxial</text>
<line x1="468" y1="75" x2="485" y2="75" stroke="#dc2626" stroke-width="2.5"/>
<text x="492" y="79" font-size="11" fill="#333" font-family="Helvetica,Arial,sans-serif">Equibiaxial</text>
<line x1="468" y1="95" x2="485" y2="95" stroke="#16a34a" stroke-width="2.5"/>
<text x="492" y="99" font-size="11" fill="#333" font-family="Helvetica,Arial,sans-serif">Pure Shear</text>
<line x1="468" y1="115" x2="485" y2="115" stroke="#9333ea" stroke-width="2.5"/>
<text x="492" y="119" font-size="11" fill="#333" font-family="Helvetica,Arial,sans-serif">Simple Shear</text>
</g>
<g transform="translate(0,350)">
<rect x="70" y="40" width="550" height="255" fill="#fafafa" stroke="#ccc" stroke-width="1"/>
<line x1="70.0" y1="40" x2="70.0" y2="295" stroke="#e5e7eb" stroke-width="0.5"/>
<text x="70.0" y="310" text-anchor="middle" font-size="11" fill="#555" font-family="Helvetica,Arial,sans-serif">3.0e-03</text>
<line x1="180.0" y1="40" x2="180.0" y2="295" stroke="#e5e7eb" stroke-width="0.5"/>
<text x="180.0" y="310" text-anchor="middle" font-size="11" fill="#555" font-family="Helvetica,Arial,sans-serif">3.0e-02</text>
<line x1="290.0" y1="40" x2="290.0" y2="295" stroke="#e5e7eb" stroke-width="0.5"/>
<text x="290.0" y="310" text-anchor="middle" font-size="11" fill="#555" font-family="Helvetica,Arial,sans-serif">0.3</text>
<line x1="400.0" y1="40" x2="400.0" y2="295" stroke="#e5e7eb" stroke-width="0.5"/>
<text x="400.0" y="310" text-anchor="middle" font-size="11" fill="#555" font-family="Helvetica,Arial,sans-serif">3.0</text>
<line x1="510.0" y1="40" x2="510.0" y2="295" stroke="#e5e7eb" stroke-width="0.5"/>
<text x="510.0" y="310" text-anchor="middle" font-size="11" fill="#555" font-family="Helvetica,Arial,sans-serif">30.0</text>
<line x1="620.0" y1="40" x2="620.0" y2="295" stroke="#e5e7eb" stroke-width="0.5"/>
<text x="620.0" y="310" text-anchor="middle" font-size="11" fill="#555" font-family="Helvetica,Arial,sans-serif">3.0e+02</text>
<line x1="70" y1="295.0" x2="620" y2="295.0" stroke="#e5e7eb" stroke-width="0.5"/>
<text x="62" y="299.0" text-anchor="end" font-size="11" fill="#555" font-family="Helvetica,Arial,sans-serif">2.8e-03</text>
<line x1="70" y1="244.0" x2="620" y2="244.0" stroke="#e5e7eb" stroke-width="0.5"/>
<text x="62" y="248.0" text-anchor="end" font-size="11" fill="#555" font-family="Helvetica,Arial,sans-serif">0.011</text>
<line x1="70" y1="193.0" x2="620" y2="193.0" stroke="#e5e7eb" stroke-width="0.5"/>
<text x="62" y="197.0" text-anchor="end" font-size="11" fill="#555" font-family="Helvetica,Arial,sans-serif">0.047</text>
<line x1="70" y1="142.0" x2="620" y2="142.0" stroke="#e5e7eb" stroke-width="0.5"/>
<text x="62" y="146.0" text-anchor="end" font-size="11" fill="#555" font-family="Helvetica,Arial,sans-serif">0.19</text>
<line x1="70" y1="91.0" x2="620" y2="91.0" stroke="#e5e7eb" stroke-width="0.5"/>
<text x="62" y="95.0" text-anchor="end" font-size="11" fill="#555" font-family="Helvetica,Arial,sans-serif">0.79</text>
<line x1="70" y1="40.0" x2="620" y2="40.0" stroke="#e5e7eb" stroke-width="0.5"/>
<text x="62" y="44.0" text-anchor="end" font-size="11" fill="#555" font-family="Helvetica,Arial,sans-serif">3.2</text>
<rect x="70" y="40" width="550" height="255" fill="none" stroke="#333" stroke-width="1.5"/>
<text x="345.0" y="337" text-anchor="middle" font-size="13" font-weight="bold" fill="#333" font-family="Helvetica,Arial,sans-serif">Frequency (Hz)</text>
<text x="20" y="167.5" text-anchor="middle" font-size="13" font-weight="bold" fill="#333" font-family="Helvetica,Arial,sans-serif" transform="rotate(-90,20,167.5)">Loss Modulus G'' (Pa)</text>
<text x="345.0" y="28" text-anchor="middle" font-size="15" font-weight="bold" fill="#222" font-family="Helvetica,Arial,sans-serif">Frequency Sweep: Loss Modulus</text>
<polyline points="70.0,209.8 79.2,202.9 88.3,196.0 97.5,189.0 106.7,182.1 115.8,175.2 125.0,168.3 134.2,161.4 143.3,154.5 152.5,147.6 161.7,140.7 170.8,133.8 180.0,127.0 189.2,120.2 198.3,113.5 207.5,106.9 216.7,100.4 225.8,94.1 235.0,88.1 244.2,82.5 253.3,77.4 262.5,73.0 271.7,69.4 280.8,66.9 290.0,65.5 299.2,65.3 308.3,66.2 317.5,68.1 326.7,70.6 335.8,73.4 345.0,76.4 354.2,79.1 363.3,81.6 372.5,83.8 381.7,85.7 390.8,87.6 400.0,89.7 409.2,92.4 418.3,95.7 427.5,99.6 436.7,104.3 445.8,109.5 455.0,115.2 464.2,121.2 473.3,127.5 482.5,134.0 491.7,140.6 500.8,147.3 510.0,154.1 519.2,160.9 528.3,167.8 537.5,174.7 546.7,181.6 555.8,188.5 565.0,195.4 574.2,202.3 583.3,209.2 592.5,216.1 601.7,223.1 610.8,230.0 620.0,236.9" fill="none" stroke="#2563eb" stroke-width="2" stroke-linecap="round" stroke-linejoin="round"/>
<polyline points="70.0,199.3 79.2,192.4 88.3,185.4 97.5,178.5 106.7,171.6 115.8,164.7 125.0,157.8 134.2,150.8 143.3,143.9 152.5,137.0 161.7,130.2 170.8,123.3 180.0,116.5 189.2,109.7 198.3,103.0 207.5,96.4 216.7,89.9 225.8,83.6 235.0,77.6 244.2,71.9 253.3,66.8 262.5,62.4 271.7,58.8 280.8,56.3 290.0,54.9 299.2,54.6 308.3,55.5 317.5,57.2 326.7,59.5 335.8,62.2 345.0,64.9 354.2,67.5 363.3,69.6 372.5,71.5 381.7,73.1 390.8,74.7 400.0,76.7 409.2,79.1 418.3,82.3 427.5,86.2 436.7,90.8 445.8,95.9 455.0,101.6 464.2,107.6 473.3,113.8 482.5,120.3 491.7,126.9 500.8,133.6 510.0,140.4 519.2,147.2 528.3,154.1 537.5,161.0 546.7,167.9 555.8,174.8 565.0,181.7 574.2,188.6 583.3,195.5 592.5,202.4 601.7,209.4 610.8,216.3 620.0,223.2" fill="none" stroke="#dc2626" stroke-width="2" stroke-linecap="round" stroke-linejoin="round"/>
<polyline points="70.0,234.8 79.2,227.9 88.3,221.0 97.5,214.1 106.7,207.1 115.8,200.2 125.0,193.3 134.2,186.4 143.3,179.5 152.5,172.6 161.7,165.7 170.8,158.9 180.0,152.0 189.2,145.2 198.3,138.5 207.5,131.9 216.7,125.4 225.8,119.1 235.0,113.1 244.2,107.5 253.3,102.4 262.5,98.0 271.7,94.5 280.8,91.9 290.0,90.6 299.2,90.4 308.3,91.3 317.5,93.1 326.7,95.6 335.8,98.4 345.0,101.4 354.2,104.2 363.3,106.6 372.5,108.8 381.7,110.7 390.8,112.6 400.0,114.7 409.2,117.4 418.3,120.7 427.5,124.7 436.7,129.3 445.8,134.5 455.0,140.2 464.2,146.2 473.3,152.5 482.5,159.0 491.7,165.6 500.8,172.3 510.0,179.1 519.2,186.0 528.3,192.8 537.5,199.7 546.7,206.6 555.8,213.5 565.0,220.4 574.2,227.3 583.3,234.2 592.5,241.2 601.7,248.1 610.8,255.0 620.0,261.9" fill="none" stroke="#16a34a" stroke-width="2" stroke-linecap="round" stroke-linejoin="round"/>
<polyline points="70.0,242.9 79.2,236.0 88.3,229.0 97.5,222.1 106.7,215.2 115.8,208.3 125.0,201.4 134.2,194.5 143.3,187.5 152.5,180.7 161.7,173.8 170.8,166.9 180.0,160.1 189.2,153.3 198.3,146.6 207.5,140.0 216.7,133.5 225.8,127.2 235.0,121.2 244.2,115.6 253.3,110.5 262.5,106.1 271.7,102.5 280.8,100.0 290.0,98.6 299.2,98.4 308.3,99.3 317.5,101.1 326.7,103.6 335.8,106.5 345.0,109.4 354.2,112.2 363.3,114.7 372.5,116.8 381.7,118.7 390.8,120.6 400.0,122.8 409.2,125.4 418.3,128.7 427.5,132.7 436.7,137.4 445.8,142.6 455.0,148.2 464.2,154.3 473.3,160.6 482.5,167.1 491.7,173.7 500.8,180.4 510.0,187.2 519.2,194.0 528.3,200.9 537.5,207.7 546.7,214.6 555.8,221.5 565.0,228.5 574.2,235.4 583.3,242.3 592.5,249.2 601.7,256.1 610.8,263.1 620.0,270.0" fill="none" stroke="#9333ea" stroke-width="2" stroke-linecap="round" stroke-linejoin="round"/>
<rect x="460" y="43" width="150" height="90" fill="white" fill-opacity="0.9" stroke="#ccc" rx="3"/>
<line x1="468" y1="55" x2="485" y2="55" stroke="#2563eb" stroke-width="2.5"/>
<text x="492" y="59" font-size="11" fill="#333" font-family="Helvetica,Arial,sans-serif">Uniaxial</text>
<line x1="468" y1="75" x2="485" y2="75" stroke="#dc2626" stroke-width="2.5"/>
<text x="492" y="79" font-size="11" fill="#333" font-family="Helvetica,Arial,sans-serif">Equibiaxial</text>
<line x1="468" y1="95" x2="485" y2="95" stroke="#16a34a" stroke-width="2.5"/>
<text x="492" y="99" font-size="11" fill="#333" font-family="Helvetica,Arial,sans-serif">Pure Shear</text>
<line x1="468" y1="115" x2="485" y2="115" stroke="#9333ea" stroke-width="2.5"/>
<text x="492" y="119" font-size="11" fill="#333" font-family="Helvetica,Arial,sans-serif">Simple Shear</text>
</g>
</svg>