<svg xmlns="http://www.w3.org/2000/svg" viewBox="0 0 650 700" width="650" height="700">
<rect width="650" height="700" fill="white"/>
<g transform="translate(0,0)">
<rect x="70" y="40" width="550" height="255" fill="#fafafa" stroke="#ccc" stroke-width="1"/>
<line x1="70.0" y1="40" x2="70.0" y2="295" stroke="#e5e7eb" stroke-width="0.5"/>
<text x="70.0" y="310" text-anchor="middle" font-size="11" fill="#555" font-family="Helvetica,Arial,sans-serif">3.0e-03</text>
<line x1="180.0" y1="40" x2="180.0" y2="295" stroke="#e5e7eb" stroke-width="0.5"/>
<text x="180.0" y="310" text-anchor="middle" font-size="11" fill="#555" font-family="Helvetica,Arial,sans-serif">1.2e-02</text>
<line x1="290.0" y1="40" x2="290.0" y2="295" stroke="#e5e7eb" stroke-width="0.5"/>
<text x="290.0" y="310" text-anchor="middle" font-size="11" fill="#555" font-family="Helvetica,Arial,sans-serif">4.8e-02</text>
<line x1="400.0" y1="40" x2="400.0" y2="295" stroke="#e5e7eb" stroke-width="0.5"/>
<text x="400.0" y="310" text-anchor="middle" font-size="11" fill="#555" font-family="Helvetica,Arial,sans-serif">0.2</text>
<line x1="510.0" y1="40" x2="510.0" y2="295" stroke="#e5e7eb" stroke-width="0.5"/>
<text x="510.0" y="310" text-anchor="middle" font-size="11" fill="#555" font-family="Helvetica,Arial,sans-serif">0.8</text>
<line x1="620.0" y1="40" x2="620.0" y2="295" stroke="#e5e7eb" stroke-width="0.5"/>
<text x="620.0" y="310" text-anchor="middle" font-size="11" fill="#555" font-family="Helvetica,Arial,sans-serif">3.0</text>
<line x1="70" y1="295.0" x2="620" y2="295.0" stroke="#e5e7eb" stroke-width="0.5"/>
<text x="62" y="299.0" text-anchor="end" font-size="11" fill="#555" font-family="Helvetica,Arial,sans-serif">1.4</text>
<line x1="70" y1="244.0" x2="620" y2="244.0" stroke="#e5e7eb" stroke-width="0.5"/>
<text x="62" y="248.0" text-anchor="end" font-size="11" fill="#555" font-family="Helvetica,Arial,sans-serif">2.3</text>
<line x1="70" y1="193.0" x2="620" y2="193.0" stroke="#e5e7eb" stroke-width="0.5"/>
<text x="62" y="197.0" text-anchor="end" font-size="11" fill="#555" font-family="Helvetica,Arial,sans-serif">3.6</text>
<line x1="70" y1="142.0" x2="620" y2="142.0" stroke="#e5e7eb" stroke-width="0.5"/>
<text x="62" y="146.0" text-anchor="end" font-size="11" fill="#555" font-family="Helvetica,Arial,sans-serif">5.6</text>
<line x1="70" y1="91.0" x2="620" y2="91.0" stroke="#e5e7eb" stroke-width="0.5"/>
<text x="62" y="95.0" text-anchor="end" font-size="11" fill="#555" font-family="Helvetica,Arial,sans-serif">8.8</text>
<line x1="70" y1="40.0" x2="620" y2="40.0" stroke="#e5e7eb" stroke-width="0.5"/>
<text x="62" y="44.0" text-anchor="end" font-size="11" fill="#555" font-family="Helvetica,Arial,sans-serif">14</text>
<rect x="70" y="40" width="550" height="255" fill="none" stroke="#333" stroke-width="1.5"/>
<text x="345.0" y="337" text-anchor="middle" font-size="13" font-weight="bold" fill="#333" font-family="Helvetica,Arial,sans-serif">Frequency (Hz)</text>
<text x="20" y="167.5" text-anchor="middle" font-size="13" font-weight="bold" fill="#333" font-family="Helvetica,Arial,sans-serif" transform="rotate(-90,20,167.5)">Storage Modulus G' (Pa)</text>
<text x="345.0" y="28" text-anchor="middle" font-size="15" font-weight="bold" fill="#222" font-family="Helvetica,Arial,sans-serif">Frequency Sweep: Storage Modulus</text>
<polyline points="70.0,179.9 79.2,179.9 88.3,179.9 97.5,179.9 106.7,179.9 115.8,179.9 125.0,179.9 134.2,179.9 143.3,179.9 152.5,179.9 161.7,179.9 170.8,179.9 180.0,179.8 189.2,179.8 198.3,179.8 207.5,179.7 216.7,179.7 225.8,179.6 235.0,179.5 244.2,179.4 253.3,179.2 262.5,179.0 271.7,178.8 280.8,178.5 290.0,178.1 299.2,177.7 308.3,177.1 317.5,176.4 326.7,175.5 335.8,174.5 345.0,173.2 354.2,171.7 363.3,169.9 372.5,167.9 381.7,165.5 390.8,162.7 400.0,159.7 409.2,156.4 418.3,153.0 427.5,149.4 436.7,145.7 445.8,142.2 455.0,138.7 464.2,135.5 473.3,132.5 482.5,129.9 491.7,127.5 500.8,125.4 510.0,123.6 519.2,122.0 528.3,120.6 537.5,119.3 546.7,118.1 555.8,117.1 565.0,116.1 574.2,115.1 583.3,114.1 592.5,113.1 601.7,112.1 610.8,111.1 620.0,110.1" fill="none" stroke="#2563eb" stroke-width="2" stroke-linecap="round" stroke-linejoin="round"/>
<polyline points="70.0,134.3 79.2,134.3 88.3,134.3 97.5,134.3 106.7,134.3 115.8,134.3 125.0,134.3 134.2,134.3 143.3,134.2 152.5,134.2 161.7,134.2 170.8,134.2 180.0,134.2 189.2,134.2 198.3,134.1 207.5,134.1 216.7,134.0 225.8,134.0 235.0,133.9 244.2,133.8 253.3,133.6 262.5,133.5 271.7,133.2 280.8,133.0 290.0,132.7 299.2,132.2 308.3,131.7 317.5,131.1 326.7,130.4 335.8,129.4 345.0,128.3 354.2,126.9 363.3,125.3 372.5,123.5 381.7,121.3 390.8,118.8 400.0,116.1 409.2,113.1 418.3,110.0 427.5,106.7 436.7,103.4 445.8,100.1 455.0,96.9 464.2,94.0 473.3,91.2 482.5,88.7 491.7,86.5 500.8,84.6 510.0,82.8 519.2,81.3 528.3,80.0 537.5,78.8 546.7,77.7 555.8,76.6 565.0,75.6 574.2,74.6 583.3,73.6 592.5,72.6 601.7,71.6 610.8,70.6 620.0,69.5" fill="none" stroke="#dc2626" stroke-width="2" stroke-linecap="round" stroke-linejoin="round"/>
<polyline points="70.0,258.0 79.2,258.0 88.3,258.0 97.5,258.0 106.7,258.0 115.8,258.0 125.0,258.0 134.2,258.0 143.3,258.0 152.5,258.0 161.7,257.9 170.8,257.9 180.0,257.9 189.2,257.9 198.3,257.8 207.5,257.8 216.7,257.7 225.8,257.6 235.0,257.5 244.2,257.4 253.3,257.3 262.5,257.1 271.7,256.8 280.8,256.5 290.0,256.2 299.2,255.7 308.3,255.2 317.5,254.5 326.7,253.6 335.8,252.6 345.0,251.3 354.2,249.8 363.3,248.0 372.5,245.9 381.7,243.5 390.8,240.8 400.0,237.8 409.2,234.5 418.3,231.0 427.5,227.4 436.7,223.8 445.8,220.2 455.0,216.8 464.2,213.6 473.3,210.6 482.5,207.9 491.7,205.6 500.8,203.5 510.0,201.6 519.2,200.0 528.3,198.6 537.5,197.4 546.7,196.2 555.8,195.1 565.0,194.1 574.2,193.1 583.3,192.1 592.5,191.2 601.7,190.2 610.8,189.2 620.0,188.2" fill="none" stroke="#16a34a" stroke-width="2" stroke-linecap="round" stroke-linejoin="round"/>
<polyline points="70.0,269.9 79.2,269.9 88.3,269.9 97.5,269.9 106.7,269.9 115.8,269.9 125.0,269.8 134.2,269.8 143.3,269.8 152.5,269.8 161.7,269.8 170.8,269.8 180.0,269.8 189.2,269.7 198.3,269.7 207.5,269.7 216.7,269.6 225.8,269.5 235.0,269.5 244.2,269.3 253.3,269.2 262.5,269.0 271.7,268.8 280.8,268.6 290.0,268.2 299.2,267.8 308.3,267.3 317.5,266.7 326.7,265.9 335.8,265.0 345.0,263.9 354.2,262.5 363.3,260.9 372.5,259.1 381.7,256.9 390.8,254.4 400.0,251.7 409.2,248.7 418.3,245.6 427.5,242.3 436.7,239.0 445.8,235.7 455.0,232.6 464.2,229.6 473.3,226.9 482.5,224.4 491.7,222.2 500.8,220.2 510.0,218.5 519.2,217.0 528.3,215.7 537.5,214.6 546.7,213.5 555.8,212.5 565.0,211.5 574.2,210.6 583.3,209.7 592.5,208.8 601.7,207.8 610.8,206.9 620.0,206.0" fill="none" stroke="#9333ea" stroke-width="2" stroke-linecap="round" stroke-linejoin="round"/>
<rect x="460" y="43" width="150" height="90" fill="white" fill-opacity="0.9" stroke="#ccc" rx="3"/>
<line x1="468" y1="55" x2="485" y2="55" stroke="#2563eb" stroke-width="2.5"/>
<text x="492" y="59" font-size="11" fill="#333" font-family="Helvetica,Arial,sans-serif">Uniaxial</text>
<line x1="468" y1="75" x2="485" y2="75" stroke="#dc2626" stroke-width="2.5"/>
<text x="492" y="79" font-size="11" fill="#333" font-family="Helvetica,Arial,sans-serif">Equibiaxial</text>
<line x1="468" y1="95" x2="485" y2="95" stroke="#16a34a" stroke-width="2.5"/>
<text x="492" y="99" font-size="11" fill="#333" font-family="Helvetica,Arial,sans-serif">Pure Shear</text>
<line x1="468" y1="115" x2="485" y2="115" stroke="#9333ea" stroke-width="2.5"/>
<text x="492" y="119" font-size="11" fill="#333" font-family="Helvetica,Arial,sans-serif">Simple Shear</text>
</g>
<g transform="translate(0,350)">
<rect x="70" y="40" width="550" height="255" fill="#fafafa" stroke="#ccc" stroke-width="1"/>
<line x1="70.0" y1="40" x2="70.0" y2="295" stroke="#e5e7eb" stroke-width="0.5"/>
<text x="70.0" y="310" text-anchor="middle" font-size="11" fill="#555" font-family="Helvetica,Arial,sans-serif">3.0e-03</text>
<line x1="180.0" y1="40" x2="180.0" y2="295" stroke="#e5e7eb" stroke-width="0.5"/>
<text x="180.0" y="310" text-anchor="middle" font-size="11" fill="#555" font-family="Helvetica,Arial,sans-serif">1.2e-02</text>
<line x1="290.0" y1="40" x2="290.0" y2="295" stroke="#e5e7eb" stroke-width="0.5"/>
<text x="290.0" y="310" text-anchor="middle" font-size="11" fill="#555" font-family="Helvetica,Arial,sans-serif">4.8e-02</text>
<line x1="400.0" y1="40" x2="400.0" y2="295" stroke="#e5e7eb" stroke-width="0.5"/>
<text x="400.0" y="310" text-anchor="middle" font-size="11" fill="#555" font-family="Helvetica,Arial,sans-serif">0.2</text>
<line x1="510.0" y1="40" x2="510.0" y2="295" stroke="#e5e7eb" stroke-width="0.5"/>
<text x="510.0" y="310" text-anchor="middle" font-size="11" fill="#555" font-family="Helvetica,Arial,sans-serif">0.8</text>
<line x1="620.0" y1="40" x2="620.0" y2="295" stroke="#e5e7eb" stroke-width="0.5"/>
<text x="620.0" y="310" text-anchor="middle" font-size="11" fill="#555" font-family="Helvetica,Arial,sans-serif">3.0</text>
<line x1="70" y1="295.0" x2="620" y2="295.0" stroke="#e5e7eb" stroke-width="0.5"/>
<text x="62" y="299.0" text-anchor="end" font-size="11" fill="#555" font-family="Helvetica,Arial,sans-serif">5.8e-03</text>
<line x1="70" y1="244.0" x2="620" y2="244.0" stroke="#e5e7eb" stroke-width="0.5"/>
<text x="62" y="248.0" text-anchor="end" font-size="11" fill="#555" font-family="Helvetica,Arial,sans-serif">0.021</text>
<line x1="70" y1="193.0" x2="620" y2="193.0" stroke="#e5e7eb" stroke-width="0.5"/>
<text x="62" y="197.0" text-anchor="end" font-size="11" fill="#555" font-family="Helvetica,Arial,sans-serif">0.073</text>
<line x1="70" y1="142.0" x2="620" y2="142.0" stroke="#e5e7eb" stroke-width="0.5"/>
<text x="62" y="146.0" text-anchor="end" font-size="11" fill="#555" font-family="Helvetica,Arial,sans-serif">0.26</text>
<line x1="70" y1="91.0" x2="620" y2="91.0" stroke="#e5e7eb" stroke-width="0.5"/>
<text x="62" y="95.0" text-anchor="end" font-size="11" fill="#555" font-family="Helvetica,Arial,sans-serif">0.91</text>
<line x1="70" y1="40.0" x2="620" y2="40.0" stroke="#e5e7eb" stroke-width="0.5"/>
<text x="62" y="44.0" text-anchor="end" font-size="11" fill="#555" font-family="Helvetica,Arial,sans-serif">3.2</text>
<rect x="70" y="40" width="550" height="255" fill="none" stroke="#333" stroke-width="1.5"/>
<text x="345.0" y="337" text-anchor="middle" font-size="13" font-weight="bold" fill="#333" font-family="Helvetica,Arial,sans-serif">Frequency (Hz)</text>
<text x="20" y="167.5" text-anchor="middle" font-size="13" font-weight="bold" fill="#333" font-family="Helvetica,Arial,sans-serif" transform="rotate(-90,20,167.5)">Loss Modulus G'' (Pa)</text>
<text x="345.0" y="28" text-anchor="middle" font-size="15" font-weight="bold" fill="#222" font-family="Helvetica,Arial,sans-serif">Frequency Sweep: Loss Modulus</text>
<polyline points="70.0,230.0 79.2,225.4 88.3,220.7 97.5,216.1 106.7,211.4 115.8,206.8 125.0,202.1 134.2,197.5 143.3,192.8 152.5,188.2 161.7,183.6 170.8,178.9 180.0,174.3 189.2,169.6 198.3,165.0 207.5,160.4 216.7,155.8 225.8,151.2 235.0,146.6 244.2,142.0 253.3,137.4 262.5,132.8 271.7,128.3 280.8,123.8 290.0,119.3 299.2,114.9 308.3,110.5 317.5,106.2 326.7,102.0 335.8,97.9 345.0,93.9 354.2,90.0 363.3,86.4 372.5,83.0 381.7,79.8 390.8,76.9 400.0,74.4 409.2,72.3 418.3,70.6 427.5,69.4 436.7,68.6 445.8,68.3 455.0,68.5 464.2,69.1 473.3,70.1 482.5,71.4 491.7,73.0 500.8,74.8 510.0,76.8 519.2,78.8 528.3,80.7 537.5,82.6 546.7,84.4 555.8,86.1 565.0,87.6 574.2,89.0 583.3,90.3 592.5,91.5 601.7,92.8 610.8,94.2 620.0,95.7" fill="none" stroke="#2563eb" stroke-width="2" stroke-linecap="round" stroke-linejoin="round"/>
<polyline points="70.0,218.2 79.2,213.6 88.3,208.9 97.5,204.3 106.7,199.6 115.8,195.0 125.0,190.4 134.2,185.7 143.3,181.1 152.5,176.4 161.7,171.8 170.8,167.1 180.0,162.5 189.2,157.9 198.3,153.2 207.5,148.6 216.7,144.0 225.8,139.4 235.0,134.8 244.2,130.2 253.3,125.6 262.5,121.0 271.7,116.5 280.8,112.0 290.0,107.5 299.2,103.1 308.3,98.7 317.5,94.4 326.7,90.2 335.8,86.1 345.0,82.1 354.2,78.2 363.3,74.6 372.5,71.2 381.7,68.0 390.8,65.1 400.0,62.6 409.2,60.5 418.3,58.7 427.5,57.5 436.7,56.7 445.8,56.4 455.0,56.5 464.2,57.1 473.3,58.0 482.5,59.3 491.7,60.8 500.8,62.5 510.0,64.3 519.2,66.1 528.3,67.9 537.5,69.7 546.7,71.3 555.8,72.7 565.0,74.1 574.2,75.3 583.3,76.4 592.5,77.4 601.7,78.5 610.8,79.7 620.0,81.1" fill="none" stroke="#dc2626" stroke-width="2" stroke-linecap="round" stroke-linejoin="round"/>
<polyline points="70.0,258.0 79.2,253.4 88.3,248.7 97.5,244.1 106.7,239.4 115.8,234.8 125.0,230.1 134.2,225.5 143.3,220.8 152.5,216.2 161.7,211.5 170.8,206.9 180.0,202.3 189.2,197.6 198.3,193.0 207.5,188.4 216.7,183.8 225.8,179.1 235.0,174.5 244.2,169.9 253.3,165.4 262.5,160.8 271.7,156.3 280.8,151.8 290.0,147.3 299.2,142.9 308.3,138.5 317.5,134.2 326.7,130.0 335.8,125.8 345.0,121.9 354.2,118.0 363.3,114.4 372.5,110.9 381.7,107.8 390.8,104.9 400.0,102.4 409.2,100.3 418.3,98.6 427.5,97.4 436.7,96.6 445.8,96.3 455.0,96.5 464.2,97.1 473.3,98.1 482.5,99.4 491.7,101.0 500.8,102.8 510.0,104.8 519.2,106.7 528.3,108.7 537.5,110.6 546.7,112.4 555.8,114.1 565.0,115.6 574.2,117.0 583.3,118.3 592.5,119.5 601.7,120.8 610.8,122.2 620.0,123.7" fill="none" stroke="#16a34a" stroke-width="2" stroke-linecap="round" stroke-linejoin="round"/>
<polyline points="70.0,267.0 79.2,262.4 88.3,257.7 97.5,253.1 106.7,248.4 115.8,243.8 125.0,239.1 134.2,234.5 143.3,229.8 152.5,225.2 161.7,220.6 170.8,215.9 180.0,211.3 189.2,206.6 198.3,202.0 207.5,197.4 216.7,192.8 225.8,188.2 235.0,183.5 244.2,179.0 253.3,174.4 262.5,169.8 271.7,165.3 280.8,160.8 290.0,156.3 299.2,151.9 308.3,147.5 317.5,143.2 326.7,139.0 335.8,134.9 345.0,130.9 354.2,127.0 363.3,123.4 372.5,120.0 381.7,116.8 390.8,113.9 400.0,111.4 409.2,109.3 418.3,107.6 427.5,106.4 436.7,105.6 445.8,105.3 455.0,105.5 464.2,106.1 473.3,107.1 482.5,108.4 491.7,110.0 500.8,111.8 510.0,113.8 519.2,115.8 528.3,117.7 537.5,119.6 546.7,121.4 555.8,123.1 565.0,124.6 574.2,126.0 583.3,127.3 592.5,128.5 601.7,129.8 610.8,131.2 620.0,132.7" fill="none" stroke="#9333ea" stroke-width="2" stroke-linecap="round" stroke-linejoin="round"/>
<rect x="460" y="43" width="150" height="90" fill="white" fill-opacity="0.9" stroke="#ccc" rx="3"/>
<line x1="468" y1="55" x2="485" y2="55" stroke="#2563eb" stroke-width="2.5"/>
<text x="492" y="59" font-size="11" fill="#333" font-family="Helvetica,Arial,sans-serif">Uniaxial</text>
<line x1="468" y1="75" x2="485" y2="75" stroke="#dc2626" stroke-width="2.5"/>
<text x="492" y="79" font-size="11" fill="#333" font-family="Helvetica,Arial,sans-serif">Equibiaxial</text>
<line x1="468" y1="95" x2="485" y2="95" stroke="#16a34a" stroke-width="2.5"/>
<text x="492" y="99" font-size="11" fill="#333" font-family="Helvetica,Arial,sans-serif">Pure Shear</text>
<line x1="468" y1="115" x2="485" y2="115" stroke="#9333ea" stroke-width="2.5"/>
<text x="492" y="119" font-size="11" fill="#333" font-family="Helvetica,Arial,sans-serif">Simple Shear</text>
</g>
</svg>