<svg xmlns="http://www.w3.org/2000/svg" viewBox="0 0 650 700" width="650" height="700">
<rect width="650" height="700" fill="white"/>
<g transform="translate(0,0)">
<rect x="70" y="40" width="550" height="255" fill="#fafafa" stroke="#ccc" stroke-width="1"/>
<line x1="70.0" y1="40" x2="70.0" y2="295" stroke="#e5e7eb" stroke-width="0.5"/>
<text x="70.0" y="310" text-anchor="middle" font-size="11" fill="#555" font-family="Helvetica,Arial,sans-serif">1.0e-02</text>
<line x1="180.0" y1="40" x2="180.0" y2="295" stroke="#e5e7eb" stroke-width="0.5"/>
<text x="180.0" y="310" text-anchor="middle" font-size="11" fill="#555" font-family="Helvetica,Arial,sans-serif">2.5e-02</text>
<line x1="290.0" y1="40" x2="290.0" y2="295" stroke="#e5e7eb" stroke-width="0.5"/>
<text x="290.0" y="310" text-anchor="middle" font-size="11" fill="#555" font-family="Helvetica,Arial,sans-serif">6.3e-02</text>
<line x1="400.0" y1="40" x2="400.0" y2="295" stroke="#e5e7eb" stroke-width="0.5"/>
<text x="400.0" y="310" text-anchor="middle" font-size="11" fill="#555" font-family="Helvetica,Arial,sans-serif">0.2</text>
<line x1="510.0" y1="40" x2="510.0" y2="295" stroke="#e5e7eb" stroke-width="0.5"/>
<text x="510.0" y="310" text-anchor="middle" font-size="11" fill="#555" font-family="Helvetica,Arial,sans-serif">0.4</text>
<line x1="620.0" y1="40" x2="620.0" y2="295" stroke="#e5e7eb" stroke-width="0.5"/>
<text x="620.0" y="310" text-anchor="middle" font-size="11" fill="#555" font-family="Helvetica,Arial,sans-serif">1.0</text>
<line x1="70" y1="295.0" x2="620" y2="295.0" stroke="#e5e7eb" stroke-width="0.5"/>
<text x="62" y="299.0" text-anchor="end" font-size="11" fill="#555" font-family="Helvetica,Arial,sans-serif">0.95</text>
<line x1="70" y1="244.0" x2="620" y2="244.0" stroke="#e5e7eb" stroke-width="0.5"/>
<text x="62" y="248.0" text-anchor="end" font-size="11" fill="#555" font-family="Helvetica,Arial,sans-serif">1.6</text>
<line x1="70" y1="193.0" x2="620" y2="193.0" stroke="#e5e7eb" stroke-width="0.5"/>
<text x="62" y="197.0" text-anchor="end" font-size="11" fill="#555" font-family="Helvetica,Arial,sans-serif">2.7</text>
<line x1="70" y1="142.0" x2="620" y2="142.0" stroke="#e5e7eb" stroke-width="0.5"/>
<text x="62" y="146.0" text-anchor="end" font-size="11" fill="#555" font-family="Helvetica,Arial,sans-serif">4.6</text>
<line x1="70" y1="91.0" x2="620" y2="91.0" stroke="#e5e7eb" stroke-width="0.5"/>
<text x="62" y="95.0" text-anchor="end" font-size="11" fill="#555" font-family="Helvetica,Arial,sans-serif">7.7</text>
<line x1="70" y1="40.0" x2="620" y2="40.0" stroke="#e5e7eb" stroke-width="0.5"/>
<text x="62" y="44.0" text-anchor="end" font-size="11" fill="#555" font-family="Helvetica,Arial,sans-serif">13</text>
<rect x="70" y="40" width="550" height="255" fill="none" stroke="#333" stroke-width="1.5"/>
<text x="345.0" y="337" text-anchor="middle" font-size="13" font-weight="bold" fill="#333" font-family="Helvetica,Arial,sans-serif">Amplitude</text>
<text x="20" y="167.5" text-anchor="middle" font-size="13" font-weight="bold" fill="#333" font-family="Helvetica,Arial,sans-serif" transform="rotate(-90,20,167.5)">Storage Modulus G' (Pa)</text>
<text x="345.0" y="28" text-anchor="middle" font-size="15" font-weight="bold" fill="#222" font-family="Helvetica,Arial,sans-serif">Amplitude Sweep: Storage Modulus</text>
<polyline points="70.0,100.5 88.3,100.5 106.7,100.6 125.0,100.6 143.3,100.8 161.7,100.9 180.0,101.0 198.3,101.2 216.7,101.5 235.0,101.8 253.3,102.2 271.7,102.7 290.0,103.3 308.3,104.1 326.7,105.1 345.0,106.3 363.3,107.7 381.7,109.6 400.0,111.9 418.3,114.7 436.7,118.1 455.0,122.2 473.3,127.2 491.7,133.1 510.0,140.0 528.3,148.2 546.7,157.5 565.0,168.1 583.3,180.0 601.7,193.2 620.0,207.6" fill="none" stroke="#2563eb" stroke-width="2" stroke-linecap="round" stroke-linejoin="round"/>
<polyline points="70.0,65.6 88.3,65.7 106.7,65.8 125.0,65.9 143.3,66.0 161.7,66.2 180.0,66.4 198.3,66.6 216.7,66.9 235.0,67.3 253.3,67.8 271.7,68.4 290.0,69.2 308.3,70.2 326.7,71.4 345.0,72.8 363.3,74.7 381.7,76.9 400.0,79.7 418.3,83.1 436.7,87.2 455.0,92.1 473.3,98.0 491.7,105.0 510.0,113.0 528.3,122.3 546.7,132.9 565.0,144.8 583.3,157.9 601.7,172.3 620.0,187.8" fill="none" stroke="#dc2626" stroke-width="2" stroke-linecap="round" stroke-linejoin="round"/>
<polyline points="70.0,168.2 88.3,168.2 106.7,168.2 125.0,168.3 143.3,168.4 161.7,168.5 180.0,168.6 198.3,168.7 216.7,168.9 235.0,169.2 253.3,169.5 271.7,169.8 290.0,170.3 308.3,170.9 326.7,171.6 345.0,172.5 363.3,173.7 381.7,175.1 400.0,176.8 418.3,179.0 436.7,181.7 455.0,184.9 473.3,188.9 491.7,193.6 510.0,199.3 528.3,206.0 546.7,213.8 565.0,222.8 583.3,233.1 601.7,244.7 620.0,257.6" fill="none" stroke="#16a34a" stroke-width="2" stroke-linecap="round" stroke-linejoin="round"/>
<polyline points="70.0,183.2 88.3,183.2 106.7,183.3 125.0,183.3 143.3,183.4 161.7,183.4 180.0,183.5 198.3,183.7 216.7,183.8 235.0,184.0 253.3,184.2 271.7,184.5 290.0,184.9 308.3,185.4 326.7,186.0 345.0,186.7 363.3,187.6 381.7,188.8 400.0,190.2 418.3,192.0 436.7,194.2 455.0,196.8 473.3,200.1 491.7,204.1 510.0,208.8 528.3,214.5 546.7,221.2 565.0,229.1 583.3,238.2 601.7,248.5 620.0,260.1" fill="none" stroke="#9333ea" stroke-width="2" stroke-linecap="round" stroke-linejoin="round"/>
<rect x="460" y="43" width="150" height="90" fill="white" fill-opacity="0.9" stroke="#ccc" rx="3"/>
<line x1="468" y1="55" x2="485" y2="55" stroke="#2563eb" stroke-width="2.5"/>
<text x="492" y="59" font-size="11" fill="#333" font-family="Helvetica,Arial,sans-serif">Uniaxial</text>
<line x1="468" y1="75" x2="485" y2="75" stroke="#dc2626" stroke-width="2.5"/>
<text x="492" y="79" font-size="11" fill="#333" font-family="Helvetica,Arial,sans-serif">Equibiaxial</text>
<line x1="468" y1="95" x2="485" y2="95" stroke="#16a34a" stroke-width="2.5"/>
<text x="492" y="99" font-size="11" fill="#333" font-family="Helvetica,Arial,sans-serif">Pure Shear</text>
<line x1="468" y1="115" x2="485" y2="115" stroke="#9333ea" stroke-width="2.5"/>
<text x="492" y="119" font-size="11" fill="#333" font-family="Helvetica,Arial,sans-serif">Simple Shear</text>
</g>
<g transform="translate(0,350)">
<rect x="70" y="40" width="550" height="255" fill="#fafafa" stroke="#ccc" stroke-width="1"/>
<line x1="70.0" y1="40" x2="70.0" y2="295" stroke="#e5e7eb" stroke-width="0.5"/>
<text x="70.0" y="310" text-anchor="middle" font-size="11" fill="#555" font-family="Helvetica,Arial,sans-serif">1.0e-02</text>
<line x1="180.0" y1="40" x2="180.0" y2="295" stroke="#e5e7eb" stroke-width="0.5"/>
<text x="180.0" y="310" text-anchor="middle" font-size="11" fill="#555" font-family="Helvetica,Arial,sans-serif">2.5e-02</text>
<line x1="290.0" y1="40" x2="290.0" y2="295" stroke="#e5e7eb" stroke-width="0.5"/>
<text x="290.0" y="310" text-anchor="middle" font-size="11" fill="#555" font-family="Helvetica,Arial,sans-serif">6.3e-02</text>
<line x1="400.0" y1="40" x2="400.0" y2="295" stroke="#e5e7eb" stroke-width="0.5"/>
<text x="400.0" y="310" text-anchor="middle" font-size="11" fill="#555" font-family="Helvetica,Arial,sans-serif">0.2</text>
<line x1="510.0" y1="40" x2="510.0" y2="295" stroke="#e5e7eb" stroke-width="0.5"/>
<text x="510.0" y="310" text-anchor="middle" font-size="11" fill="#555" font-family="Helvetica,Arial,sans-serif">0.4</text>
<line x1="620.0" y1="40" x2="620.0" y2="295" stroke="#e5e7eb" stroke-width="0.5"/>
<text x="620.0" y="310" text-anchor="middle" font-size="11" fill="#555" font-family="Helvetica,Arial,sans-serif">1.0</text>
<line x1="70" y1="295.0" x2="620" y2="295.0" stroke="#e5e7eb" stroke-width="0.5"/>
<text x="62" y="299.0" text-anchor="end" font-size="11" fill="#555" font-family="Helvetica,Arial,sans-serif">0.012</text>
<line x1="70" y1="244.0" x2="620" y2="244.0" stroke="#e5e7eb" stroke-width="0.5"/>
<text x="62" y="248.0" text-anchor="end" font-size="11" fill="#555" font-family="Helvetica,Arial,sans-serif">0.038</text>
<line x1="70" y1="193.0" x2="620" y2="193.0" stroke="#e5e7eb" stroke-width="0.5"/>
<text x="62" y="197.0" text-anchor="end" font-size="11" fill="#555" font-family="Helvetica,Arial,sans-serif">0.12</text>
<line x1="70" y1="142.0" x2="620" y2="142.0" stroke="#e5e7eb" stroke-width="0.5"/>
<text x="62" y="146.0" text-anchor="end" font-size="11" fill="#555" font-family="Helvetica,Arial,sans-serif">0.38</text>
<line x1="70" y1="91.0" x2="620" y2="91.0" stroke="#e5e7eb" stroke-width="0.5"/>
<text x="62" y="95.0" text-anchor="end" font-size="11" fill="#555" font-family="Helvetica,Arial,sans-serif">1.2</text>
<line x1="70" y1="40.0" x2="620" y2="40.0" stroke="#e5e7eb" stroke-width="0.5"/>
<text x="62" y="44.0" text-anchor="end" font-size="11" fill="#555" font-family="Helvetica,Arial,sans-serif">3.7</text>
<rect x="70" y="40" width="550" height="255" fill="none" stroke="#333" stroke-width="1.5"/>
<text x="345.0" y="337" text-anchor="middle" font-size="13" font-weight="bold" fill="#333" font-family="Helvetica,Arial,sans-serif">Amplitude</text>
<text x="20" y="167.5" text-anchor="middle" font-size="13" font-weight="bold" fill="#333" font-family="Helvetica,Arial,sans-serif" transform="rotate(-90,20,167.5)">Loss Modulus G'' (Pa)</text>
<text x="345.0" y="28" text-anchor="middle" font-size="15" font-weight="bold" fill="#222" font-family="Helvetica,Arial,sans-serif">Amplitude Sweep: Loss Modulus</text>
<polyline points="70.0,200.9 88.3,194.1 106.7,187.3 125.0,180.5 143.3,173.8 161.7,167.0 180.0,160.3 198.3,153.6 216.7,146.9 235.0,140.3 253.3,133.8 271.7,127.3 290.0,121.0 308.3,114.9 326.7,109.0 345.0,103.3 363.3,98.1 381.7,93.3 400.0,89.1 418.3,85.7 436.7,83.0 455.0,81.4 473.3,80.7 491.7,81.0 510.0,82.4 528.3,84.8 546.7,88.0 565.0,91.9 583.3,96.5 601.7,101.6 620.0,107.2" fill="none" stroke="#2563eb" stroke-width="2" stroke-linecap="round" stroke-linejoin="round"/>
<polyline points="70.0,178.2 88.3,171.4 106.7,164.6 125.0,157.9 143.3,151.1 161.7,144.3 180.0,137.6 198.3,130.9 216.7,124.2 235.0,117.6 253.3,111.1 271.7,104.7 290.0,98.3 308.3,92.2 326.7,86.3 345.0,80.7 363.3,75.4 381.7,70.6 400.0,66.5 418.3,63.0 436.7,60.4 455.0,58.7 473.3,58.0 491.7,58.4 510.0,59.7 528.3,62.1 546.7,65.3 565.0,69.3 583.3,73.9 601.7,79.0 620.0,84.5" fill="none" stroke="#dc2626" stroke-width="2" stroke-linecap="round" stroke-linejoin="round"/>
<polyline points="70.0,241.6 88.3,234.8 106.7,228.0 125.0,221.2 143.3,214.4 161.7,207.7 180.0,200.9 198.3,194.2 216.7,187.6 235.0,181.0 253.3,174.4 271.7,168.0 290.0,161.7 308.3,155.5 326.7,149.6 345.0,144.0 363.3,138.7 381.7,134.0 400.0,129.8 418.3,126.3 436.7,123.7 455.0,122.0 473.3,121.3 491.7,121.7 510.0,123.1 528.3,125.4 546.7,128.6 565.0,132.6 583.3,137.2 601.7,142.3 620.0,147.8" fill="none" stroke="#16a34a" stroke-width="2" stroke-linecap="round" stroke-linejoin="round"/>
<polyline points="70.0,264.2 88.3,257.4 106.7,250.7 125.0,243.9 143.3,237.1 161.7,230.3 180.0,223.6 198.3,216.9 216.7,210.3 235.0,203.6 253.3,197.1 271.7,190.7 290.0,184.4 308.3,178.2 326.7,172.3 345.0,166.7 363.3,161.4 381.7,156.7 400.0,152.5 418.3,149.0 436.7,146.4 455.0,144.7 473.3,144.0 491.7,144.4 510.0,145.7 528.3,148.1 546.7,151.3 565.0,155.3 583.3,159.9 601.7,165.0 620.0,170.5" fill="none" stroke="#9333ea" stroke-width="2" stroke-linecap="round" stroke-linejoin="round"/>
<rect x="460" y="43" width="150" height="90" fill="white" fill-opacity="0.9" stroke="#ccc" rx="3"/>
<line x1="468" y1="55" x2="485" y2="55" stroke="#2563eb" stroke-width="2.5"/>
<text x="492" y="59" font-size="11" fill="#333" font-family="Helvetica,Arial,sans-serif">Uniaxial</text>
<line x1="468" y1="75" x2="485" y2="75" stroke="#dc2626" stroke-width="2.5"/>
<text x="492" y="79" font-size="11" fill="#333" font-family="Helvetica,Arial,sans-serif">Equibiaxial</text>
<line x1="468" y1="95" x2="485" y2="95" stroke="#16a34a" stroke-width="2.5"/>
<text x="492" y="99" font-size="11" fill="#333" font-family="Helvetica,Arial,sans-serif">Pure Shear</text>
<line x1="468" y1="115" x2="485" y2="115" stroke="#9333ea" stroke-width="2.5"/>
<text x="492" y="119" font-size="11" fill="#333" font-family="Helvetica,Arial,sans-serif">Simple Shear</text>
</g>
</svg>