<svg xmlns="http://www.w3.org/2000/svg" viewBox="0 0 600 420" width="600" height="420">
<rect width="600" height="420" fill="white"/>
<rect x="70" y="40" width="500" height="325" fill="#fafafa" stroke="#ccc" stroke-width="1"/>
<line x1="70.0" y1="40" x2="70.0" y2="365" stroke="#e5e7eb" stroke-width="0.5"/>
<text x="70.0" y="380" text-anchor="middle" font-size="11" fill="#555" font-family="Helvetica,Arial,sans-serif">1</text>
<line x1="170.0" y1="40" x2="170.0" y2="365" stroke="#e5e7eb" stroke-width="0.5"/>
<text x="170.0" y="380" text-anchor="middle" font-size="11" fill="#555" font-family="Helvetica,Arial,sans-serif">1.1</text>
<line x1="270.0" y1="40" x2="270.0" y2="365" stroke="#e5e7eb" stroke-width="0.5"/>
<text x="270.0" y="380" text-anchor="middle" font-size="11" fill="#555" font-family="Helvetica,Arial,sans-serif">1.2</text>
<line x1="370.0" y1="40" x2="370.0" y2="365" stroke="#e5e7eb" stroke-width="0.5"/>
<text x="370.0" y="380" text-anchor="middle" font-size="11" fill="#555" font-family="Helvetica,Arial,sans-serif">1.3</text>
<line x1="470.0" y1="40" x2="470.0" y2="365" stroke="#e5e7eb" stroke-width="0.5"/>
<text x="470.0" y="380" text-anchor="middle" font-size="11" fill="#555" font-family="Helvetica,Arial,sans-serif">1.5</text>
<line x1="570.0" y1="40" x2="570.0" y2="365" stroke="#e5e7eb" stroke-width="0.5"/>
<text x="570.0" y="380" text-anchor="middle" font-size="11" fill="#555" font-family="Helvetica,Arial,sans-serif">1.6</text>
<line x1="70" y1="365.0" x2="570" y2="365.0" stroke="#e5e7eb" stroke-width="0.5"/>
<text x="62" y="369.0" text-anchor="end" font-size="11" fill="#555" font-family="Helvetica,Arial,sans-serif">-0.01</text>
<line x1="70" y1="300.0" x2="570" y2="300.0" stroke="#e5e7eb" stroke-width="0.5"/>
<text x="62" y="304.0" text-anchor="end" font-size="11" fill="#555" font-family="Helvetica,Arial,sans-serif">0.057</text>
<line x1="70" y1="235.0" x2="570" y2="235.0" stroke="#e5e7eb" stroke-width="0.5"/>
<text x="62" y="239.0" text-anchor="end" font-size="11" fill="#555" font-family="Helvetica,Arial,sans-serif">0.12</text>
<line x1="70" y1="170.0" x2="570" y2="170.0" stroke="#e5e7eb" stroke-width="0.5"/>
<text x="62" y="174.0" text-anchor="end" font-size="11" fill="#555" font-family="Helvetica,Arial,sans-serif">0.19</text>
<line x1="70" y1="105.0" x2="570" y2="105.0" stroke="#e5e7eb" stroke-width="0.5"/>
<text x="62" y="109.0" text-anchor="end" font-size="11" fill="#555" font-family="Helvetica,Arial,sans-serif">0.26</text>
<line x1="70" y1="40.0" x2="570" y2="40.0" stroke="#e5e7eb" stroke-width="0.5"/>
<text x="62" y="44.0" text-anchor="end" font-size="11" fill="#555" font-family="Helvetica,Arial,sans-serif">0.33</text>
<rect x="70" y="40" width="500" height="325" fill="none" stroke="#333" stroke-width="1.5"/>
<text x="320.0" y="407" text-anchor="middle" font-size="13" font-weight="bold" fill="#333" font-family="Helvetica,Arial,sans-serif">Amount of Stretch</text>
<text x="20" y="202.5" text-anchor="middle" font-size="13" font-weight="bold" fill="#333" font-family="Helvetica,Arial,sans-serif" transform="rotate(-90,20,202.5)">PK1 Stress (Nominal Stress)</text>
<text x="320.0" y="28" text-anchor="middle" font-size="15" font-weight="bold" fill="#222" font-family="Helvetica,Arial,sans-serif">Soft Tissue: Uniaxial Tension Fitting</text>
<circle cx="70.0" cy="352.8" r="3" fill="#2563eb" opacity="0.7"/>
<circle cx="95.0" cy="353.8" r="3" fill="#2563eb" opacity="0.7"/>
<circle cx="120.0" cy="352.7" r="3" fill="#2563eb" opacity="0.7"/>
<circle cx="145.0" cy="349.4" r="3" fill="#2563eb" opacity="0.7"/>
<circle cx="170.0" cy="344.1" r="3" fill="#2563eb" opacity="0.7"/>
<circle cx="195.0" cy="336.9" r="3" fill="#2563eb" opacity="0.7"/>
<circle cx="220.0" cy="327.9" r="3" fill="#2563eb" opacity="0.7"/>
<circle cx="245.0" cy="317.3" r="3" fill="#2563eb" opacity="0.7"/>
<circle cx="270.0" cy="305.1" r="3" fill="#2563eb" opacity="0.7"/>
<circle cx="295.0" cy="291.5" r="3" fill="#2563eb" opacity="0.7"/>
<circle cx="320.0" cy="276.6" r="3" fill="#2563eb" opacity="0.7"/>
<circle cx="345.0" cy="260.5" r="3" fill="#2563eb" opacity="0.7"/>
<circle cx="370.0" cy="243.3" r="3" fill="#2563eb" opacity="0.7"/>
<circle cx="395.0" cy="225.2" r="3" fill="#2563eb" opacity="0.7"/>
<circle cx="420.0" cy="206.2" r="3" fill="#2563eb" opacity="0.7"/>
<circle cx="445.0" cy="186.5" r="3" fill="#2563eb" opacity="0.7"/>
<circle cx="470.0" cy="166.2" r="3" fill="#2563eb" opacity="0.7"/>
<circle cx="495.0" cy="145.4" r="3" fill="#2563eb" opacity="0.7"/>
<circle cx="520.0" cy="124.2" r="3" fill="#2563eb" opacity="0.7"/>
<circle cx="545.0" cy="102.7" r="3" fill="#2563eb" opacity="0.7"/>
<circle cx="570.0" cy="81.1" r="3" fill="#2563eb" opacity="0.7"/>
<polyline points="70.0,355.3 72.5,354.8 75.0,354.3 77.5,353.8 80.1,353.2 82.6,352.7 85.1,352.2 87.6,351.7 90.1,351.2 92.6,350.7 95.1,350.2 97.6,349.7 100.2,349.2 102.7,348.7 105.2,348.2 107.7,347.7 110.2,347.2 112.7,346.7 115.2,346.2 117.7,345.7 120.3,345.2 122.8,344.7 125.3,344.2 127.8,343.7 130.3,343.2 132.8,342.7 135.3,342.3 137.8,341.8 140.4,341.3 142.9,340.8 145.4,340.3 147.9,339.8 150.4,339.3 152.9,338.8 155.4,338.3 157.9,337.9 160.5,337.4 163.0,336.9 165.5,336.4 168.0,335.9 170.5,335.4 173.0,334.9 175.5,334.4 178.0,333.9 180.6,333.4 183.1,332.9 185.6,332.5 188.1,332.0 190.6,331.5 193.1,331.0 195.6,330.5 198.1,330.0 200.7,329.5 203.2,329.0 205.7,328.5 208.2,328.0 210.7,327.5 213.2,326.9 215.7,326.4 218.2,325.9 220.8,325.4 223.3,324.9 225.8,324.4 228.3,323.9 230.8,323.3 233.3,322.8 235.8,322.3 238.3,321.8 240.9,321.2 243.4,320.7 245.9,320.1 248.4,319.6 250.9,319.1 253.4,318.5 255.9,318.0 258.4,317.4 261.0,316.9 263.5,316.3 266.0,315.7 268.5,315.2 271.0,314.6 273.5,314.0 276.0,313.4 278.5,312.8 281.1,312.2 283.6,311.6 286.1,311.0 288.6,310.4 291.1,309.8 293.6,309.2 296.1,308.6 298.6,307.9 301.2,307.3 303.7,306.7 306.2,306.0 308.7,305.3 311.2,304.7 313.7,304.0 316.2,303.3 318.7,302.6 321.3,301.9 323.8,301.2 326.3,300.5 328.8,299.8 331.3,299.1 333.8,298.3 336.3,297.6 338.8,296.8 341.4,296.1 343.9,295.3 346.4,294.5 348.9,293.7 351.4,292.9 353.9,292.0 356.4,291.2 358.9,290.4 361.5,289.5 364.0,288.6 366.5,287.7 369.0,286.8 371.5,285.9 374.0,285.0 376.5,284.0 379.0,283.1 381.6,282.1 384.1,281.1 386.6,280.1 389.1,279.0 391.6,278.0 394.1,276.9 396.6,275.8 399.1,274.7 401.7,273.6 404.2,272.4 406.7,271.2 409.2,270.0 411.7,268.8 414.2,267.6 416.7,266.3 419.2,265.0 421.8,263.6 424.3,262.3 426.8,260.9 429.3,259.5 431.8,258.1 434.3,256.6 436.8,255.1 439.3,253.5 441.9,252.0 444.4,250.3 446.9,248.7 449.4,247.0 451.9,245.3 454.4,243.5 456.9,241.7 459.4,239.9 462.0,238.0 464.5,236.0 467.0,234.0 469.5,232.0 472.0,229.9 474.5,227.7 477.0,225.5 479.5,223.3 482.1,221.0 484.6,218.6 487.1,216.2 489.6,213.7 492.1,211.1 494.6,208.5 497.1,205.8 499.6,203.0 502.2,200.1 504.7,197.2 507.2,194.2 509.7,191.1 512.2,187.9 514.7,184.6 517.2,181.2 519.7,177.7 522.3,174.2 524.8,170.5 527.3,166.7 529.8,162.8 532.3,158.8 534.8,154.6 537.3,150.4 539.8,146.0 542.4,141.4 544.9,136.8 547.4,132.0 549.9,127.0 552.4,121.9 554.9,116.6 557.4,111.1 559.9,105.5 562.5,99.7 565.0,93.7 567.5,87.5 570.0,81.1" fill="none" stroke="#dc2626" stroke-width="2" stroke-linecap="round" stroke-linejoin="round"/>
<rect x="100" y="43" width="150" height="50" fill="white" fill-opacity="0.9" stroke="#ccc" rx="3"/>
<circle cx="115" cy="55" r="4" fill="#2563eb"/>
<text x="132" y="59" font-size="11" fill="#333" font-family="Helvetica,Arial,sans-serif">Experimental</text>
<line x1="108" y1="75" x2="125" y2="75" stroke="#dc2626" stroke-width="2.5"/>
<text x="132" y="79" font-size="11" fill="#333" font-family="Helvetica,Arial,sans-serif">UMAT Fit</text>
<text x="95.0" y="121.2" font-size="11" fill="#333" font-family="monospace">R² = 0.9987</text>
<text x="95.0" y="144.0" font-size="11" fill="#333" font-family="monospace">C₁₀ = 1.52e-01</text>
<text x="95.0" y="166.8" font-size="11" fill="#333" font-family="monospace">K₁  = 4.87e-01</text>
<text x="95.0" y="189.5" font-size="11" fill="#333" font-family="monospace">K₂  = 7.93e-01</text>
</svg>