<svg xmlns="http://www.w3.org/2000/svg" viewBox="0 0 600 380" width="600" height="380">
<rect width="600" height="380" fill="white"/>
<rect x="70" y="40" width="500" height="285" fill="#fafafa" stroke="#ccc" stroke-width="1"/>
<line x1="70.0" y1="40" x2="70.0" y2="325" stroke="#e5e7eb" stroke-width="0.5"/>
<text x="70.0" y="340" text-anchor="middle" font-size="11" fill="#555" font-family="Helvetica,Arial,sans-serif">0</text>
<line x1="170.0" y1="40" x2="170.0" y2="325" stroke="#e5e7eb" stroke-width="0.5"/>
<text x="170.0" y="340" text-anchor="middle" font-size="11" fill="#555" font-family="Helvetica,Arial,sans-serif">60</text>
<line x1="270.0" y1="40" x2="270.0" y2="325" stroke="#e5e7eb" stroke-width="0.5"/>
<text x="270.0" y="340" text-anchor="middle" font-size="11" fill="#555" font-family="Helvetica,Arial,sans-serif">1.2e+02</text>
<line x1="370.0" y1="40" x2="370.0" y2="325" stroke="#e5e7eb" stroke-width="0.5"/>
<text x="370.0" y="340" text-anchor="middle" font-size="11" fill="#555" font-family="Helvetica,Arial,sans-serif">1.8e+02</text>
<line x1="470.0" y1="40" x2="470.0" y2="325" stroke="#e5e7eb" stroke-width="0.5"/>
<text x="470.0" y="340" text-anchor="middle" font-size="11" fill="#555" font-family="Helvetica,Arial,sans-serif">2.4e+02</text>
<line x1="570.0" y1="40" x2="570.0" y2="325" stroke="#e5e7eb" stroke-width="0.5"/>
<text x="570.0" y="340" text-anchor="middle" font-size="11" fill="#555" font-family="Helvetica,Arial,sans-serif">3e+02</text>
<line x1="70" y1="325.0" x2="570" y2="325.0" stroke="#e5e7eb" stroke-width="0.5"/>
<text x="62" y="329.0" text-anchor="end" font-size="11" fill="#555" font-family="Helvetica,Arial,sans-serif">0</text>
<line x1="70" y1="268.0" x2="570" y2="268.0" stroke="#e5e7eb" stroke-width="0.5"/>
<text x="62" y="272.0" text-anchor="end" font-size="11" fill="#555" font-family="Helvetica,Arial,sans-serif">0.21</text>
<line x1="70" y1="211.0" x2="570" y2="211.0" stroke="#e5e7eb" stroke-width="0.5"/>
<text x="62" y="215.0" text-anchor="end" font-size="11" fill="#555" font-family="Helvetica,Arial,sans-serif">0.42</text>
<line x1="70" y1="154.0" x2="570" y2="154.0" stroke="#e5e7eb" stroke-width="0.5"/>
<text x="62" y="158.0" text-anchor="end" font-size="11" fill="#555" font-family="Helvetica,Arial,sans-serif">0.63</text>
<line x1="70" y1="97.0" x2="570" y2="97.0" stroke="#e5e7eb" stroke-width="0.5"/>
<text x="62" y="101.0" text-anchor="end" font-size="11" fill="#555" font-family="Helvetica,Arial,sans-serif">0.84</text>
<line x1="70" y1="40.0" x2="570" y2="40.0" stroke="#e5e7eb" stroke-width="0.5"/>
<text x="62" y="44.0" text-anchor="end" font-size="11" fill="#555" font-family="Helvetica,Arial,sans-serif">1.1</text>
<rect x="70" y="40" width="500" height="285" fill="none" stroke="#333" stroke-width="1.5"/>
<text x="320.0" y="367" text-anchor="middle" font-size="13" font-weight="bold" fill="#333" font-family="Helvetica,Arial,sans-serif">Generation</text>
<text x="20" y="182.5" text-anchor="middle" font-size="13" font-weight="bold" fill="#333" font-family="Helvetica,Arial,sans-serif" transform="rotate(-90,20,182.5)">Fitness (R²)</text>
<text x="320.0" y="28" text-anchor="middle" font-size="15" font-weight="bold" fill="#222" font-family="Helvetica,Arial,sans-serif">Genetic Algorithm Convergence</text>
<polyline points="70.0,243.6 71.7,240.4 73.3,237.2 75.0,234.2 76.7,231.2 78.3,228.4 80.0,225.7 81.7,223.2 83.3,220.7 85.0,218.4 86.7,216.3 88.3,214.3 90.0,212.4 91.7,210.7 93.3,209.1 95.0,207.7 96.7,206.4 98.3,205.3 100.0,204.3 101.7,203.4 103.3,202.6 105.0,202.0 106.7,201.4 108.3,201.0 110.0,200.6 111.7,200.2 113.3,200.0 115.0,199.8 116.7,199.6 118.3,199.5 120.0,199.4 121.7,199.3 123.3,199.2 125.0,199.1 126.7,199.0 128.3,198.8 130.0,198.6 131.7,198.4 133.3,198.2 135.0,197.9 136.7,197.5 138.3,197.1 140.0,196.6 141.7,196.0 143.3,195.4 145.0,194.8 146.7,194.0 148.3,193.2 150.0,192.4 151.7,191.5 153.3,190.5 155.0,189.5 156.7,188.4 158.3,187.3 160.0,186.2 161.7,185.0 163.3,183.8 165.0,182.6 166.7,181.4 168.3,180.2 170.0,179.0 171.7,177.8 173.3,176.6 175.0,175.4 176.7,174.3 178.3,173.2 180.0,172.1 181.7,171.1 183.3,170.1 185.0,169.2 186.7,168.3 188.3,167.5 190.0,166.7 191.7,166.0 193.3,165.4 195.0,164.8 196.7,164.3 198.3,163.8 200.0,163.4 201.7,163.1 203.3,162.8 205.0,162.6 206.7,162.4 208.3,162.3 210.0,162.2 211.7,162.2 213.3,162.2 215.0,162.2 216.7,162.3 218.3,162.4 220.0,162.5 221.7,162.6 223.3,162.7 225.0,162.8 226.7,163.0 228.3,163.1 230.0,163.2 231.7,163.3 233.3,163.4 235.0,163.5 236.7,163.5 238.3,163.6 240.0,163.6 241.7,163.6 243.3,163.5 245.0,163.4 246.7,163.3 248.3,163.2 250.0,163.0 251.7,162.8 253.3,162.5 255.0,162.3 256.7,162.0 258.3,161.6 260.0,161.3 261.7,160.9 263.3,160.5 265.0,160.1 266.7,159.7 268.3,159.3 270.0,158.8 271.7,158.4 273.3,157.9 275.0,157.5 276.7,157.0 278.3,156.6 280.0,156.1 281.7,155.7 283.3,155.3 285.0,154.9 286.7,154.5 288.3,154.1 290.0,153.8 291.7,153.5 293.3,153.2 295.0,152.9 296.7,152.7 298.3,152.5 300.0,152.3 301.7,152.1 303.3,152.0 305.0,151.9 306.7,151.8 308.3,151.8 310.0,151.7 311.7,151.7 313.3,151.7 315.0,151.8 316.7,151.8 318.3,151.9 320.0,151.9 321.7,152.0 323.3,152.1 325.0,152.2 326.7,152.3 328.3,152.4 330.0,152.6 331.7,152.7 333.3,152.8 335.0,152.9 336.7,153.0 338.3,153.1 340.0,153.1 341.7,153.2 343.3,153.3 345.0,153.3 346.7,153.3 348.3,153.3 350.0,153.3 351.7,153.3 353.3,153.3 355.0,153.3 356.7,153.2 358.3,153.1 360.0,153.0 361.7,152.9 363.3,152.8 365.0,152.7 366.7,152.5 368.3,152.4 370.0,152.2 371.7,152.1 373.3,151.9 375.0,151.7 376.7,151.6 378.3,151.4 380.0,151.2 381.7,151.0 383.3,150.8 385.0,150.7 386.7,150.5 388.3,150.3 390.0,150.2 391.7,150.0 393.3,149.9 395.0,149.8 396.7,149.7 398.3,149.5 400.0,149.5 401.7,149.4 403.3,149.3 405.0,149.2 406.7,149.2 408.3,149.1 410.0,149.1 411.7,149.1 413.3,149.1 415.0,149.1 416.7,149.1 418.3,149.1 420.0,149.2 421.7,149.2 423.3,149.3 425.0,149.3 426.7,149.4 428.3,149.4 430.0,149.5 431.7,149.6 433.3,149.6 435.0,149.7 436.7,149.7 438.3,149.8 440.0,149.9 441.7,149.9 443.3,150.0 445.0,150.0 446.7,150.1 448.3,150.1 450.0,150.1 451.7,150.2 453.3,150.2 455.0,150.2 456.7,150.2 458.3,150.2 460.0,150.2 461.7,150.2 463.3,150.1 465.0,150.1 466.7,150.1 468.3,150.0 470.0,150.0 471.7,149.9 473.3,149.9 475.0,149.8 476.7,149.7 478.3,149.7 480.0,149.6 481.7,149.5 483.3,149.4 485.0,149.4 486.7,149.3 488.3,149.2 490.0,149.1 491.7,149.1 493.3,149.0 495.0,148.9 496.7,148.9 498.3,148.8 500.0,148.8 501.7,148.7 503.3,148.7 505.0,148.7 506.7,148.6 508.3,148.6 510.0,148.6 511.7,148.6 513.3,148.6 515.0,148.5 516.7,148.5 518.3,148.5 520.0,148.6 521.7,148.6 523.3,148.6 525.0,148.6 526.7,148.6 528.3,148.7 530.0,148.7 531.7,148.7 533.3,148.7 535.0,148.8 536.7,148.8 538.3,148.8 540.0,148.9 541.7,148.9 543.3,148.9 545.0,149.0 546.7,149.0 548.3,149.0 550.0,149.1 551.7,149.1 553.3,149.1 555.0,149.1 556.7,149.1 558.3,149.1 560.0,149.1 561.7,149.2 563.3,149.2 565.0,149.1 566.7,149.1 568.3,149.1 570.0,149.1" fill="none" stroke="#2563eb" stroke-width="2" stroke-linecap="round" stroke-linejoin="round"/>
<polyline points="70.0,189.3 71.7,184.8 73.3,180.6 75.0,176.4 76.7,172.4 78.3,168.5 80.0,164.7 81.7,161.1 83.3,157.6 85.0,154.2 86.7,150.9 88.3,147.7 90.0,144.7 91.7,141.7 93.3,138.8 95.0,136.0 96.7,133.3 98.3,130.7 100.0,128.2 101.7,125.8 103.3,123.4 105.0,121.1 106.7,118.9 108.3,116.8 110.0,114.7 111.7,112.8 113.3,110.8 115.0,109.0 116.7,107.2 118.3,105.4 120.0,103.7 121.7,102.1 123.3,100.5 125.0,99.0 126.7,97.5 128.3,96.1 130.0,94.7 131.7,93.4 133.3,92.1 135.0,90.8 136.7,89.6 138.3,88.4 140.0,87.3 141.7,86.2 143.3,85.2 145.0,84.1 146.7,83.1 148.3,82.2 150.0,81.3 151.7,80.4 153.3,79.5 155.0,78.7 156.7,77.8 158.3,77.1 160.0,76.3 161.7,75.6 163.3,74.9 165.0,74.2 166.7,73.5 168.3,72.9 170.0,72.2 171.7,71.6 173.3,71.1 175.0,70.5 176.7,70.0 178.3,69.4 180.0,68.9 181.7,68.4 183.3,68.0 185.0,67.5 186.7,67.1 188.3,66.6 190.0,66.2 191.7,65.8 193.3,65.4 195.0,65.0 196.7,64.7 198.3,64.3 200.0,64.0 201.7,63.6 203.3,63.3 205.0,63.0 206.7,62.7 208.3,62.4 210.0,62.2 211.7,61.9 213.3,61.6 215.0,61.4 216.7,61.1 218.3,60.9 220.0,60.7 221.7,60.4 223.3,60.2 225.0,60.0 226.7,59.8 228.3,59.6 230.0,59.4 231.7,59.3 233.3,59.1 235.0,58.9 236.7,58.8 238.3,58.6 240.0,58.4 241.7,58.3 243.3,58.2 245.0,58.0 246.7,57.9 248.3,57.7 250.0,57.6 251.7,57.5 253.3,57.4 255.0,57.3 256.7,57.2 258.3,57.1 260.0,57.0 261.7,56.9 263.3,56.8 265.0,56.7 266.7,56.6 268.3,56.5 270.0,56.4 271.7,56.3 273.3,56.2 275.0,56.2 276.7,56.1 278.3,56.0 280.0,56.0 281.7,55.9 283.3,55.8 285.0,55.8 286.7,55.7 288.3,55.6 290.0,55.6 291.7,55.5 293.3,55.5 295.0,55.4 296.7,55.4 298.3,55.3 300.0,55.3 301.7,55.2 303.3,55.2 305.0,55.2 306.7,55.1 308.3,55.1 310.0,55.0 311.7,55.0 313.3,55.0 315.0,54.9 316.7,54.9 318.3,54.9 320.0,54.8 321.7,54.8 323.3,54.8 325.0,54.7 326.7,54.7 328.3,54.7 330.0,54.7 331.7,54.6 333.3,54.6 335.0,54.6 336.7,54.6 338.3,54.6 340.0,54.5 341.7,54.5 343.3,54.5 345.0,54.5 346.7,54.5 348.3,54.4 350.0,54.4 351.7,54.4 353.3,54.4 355.0,54.4 356.7,54.4 358.3,54.3 360.0,54.3 361.7,54.3 363.3,54.3 365.0,54.3 366.7,54.3 368.3,54.3 370.0,54.3 371.7,54.2 373.3,54.2 375.0,54.2 376.7,54.2 378.3,54.2 380.0,54.2 381.7,54.2 383.3,54.2 385.0,54.2 386.7,54.2 388.3,54.2 390.0,54.1 391.7,54.1 393.3,54.1 395.0,54.1 396.7,54.1 398.3,54.1 400.0,54.1 401.7,54.1 403.3,54.1 405.0,54.1 406.7,54.1 408.3,54.1 410.0,54.1 411.7,54.1 413.3,54.1 415.0,54.1 416.7,54.1 418.3,54.1 420.0,54.0 421.7,54.0 423.3,54.0 425.0,54.0 426.7,54.0 428.3,54.0 430.0,54.0 431.7,54.0 433.3,54.0 435.0,54.0 436.7,54.0 438.3,54.0 440.0,54.0 441.7,54.0 443.3,54.0 445.0,54.0 446.7,54.0 448.3,54.0 450.0,54.0 451.7,54.0 453.3,54.0 455.0,54.0 456.7,54.0 458.3,54.0 460.0,54.0 461.7,54.0 463.3,54.0 465.0,54.0 466.7,54.0 468.3,54.0 470.0,54.0 471.7,54.0 473.3,54.0 475.0,54.0 476.7,54.0 478.3,54.0 480.0,54.0 481.7,54.0 483.3,54.0 485.0,54.0 486.7,54.0 488.3,54.0 490.0,54.0 491.7,54.0 493.3,54.0 495.0,54.0 496.7,54.0 498.3,54.0 500.0,53.9 501.7,53.9 503.3,53.9 505.0,53.9 506.7,53.9 508.3,53.9 510.0,53.9 511.7,53.9 513.3,53.9 515.0,53.9 516.7,53.9 518.3,53.9 520.0,53.9 521.7,53.9 523.3,53.9 525.0,53.9 526.7,53.9 528.3,53.9 530.0,53.9 531.7,53.9 533.3,53.9 535.0,53.9 536.7,53.9 538.3,53.9 540.0,53.9 541.7,53.9 543.3,53.9 545.0,53.9 546.7,53.9 548.3,53.9 550.0,53.9 551.7,53.9 553.3,53.9 555.0,53.9 556.7,53.9 558.3,53.9 560.0,53.9 561.7,53.9 563.3,53.9 565.0,53.9 566.7,53.9 568.3,53.9 570.0,53.9" fill="none" stroke="#dc2626" stroke-width="2" stroke-linecap="round" stroke-linejoin="round"/>
<rect x="410" y="43" width="150" height="50" fill="white" fill-opacity="0.9" stroke="#ccc" rx="3"/>
<line x1="418" y1="55" x2="435" y2="55" stroke="#2563eb" stroke-width="2.5"/>
<text x="442" y="59" font-size="11" fill="#333" font-family="Helvetica,Arial,sans-serif">Average Fitness</text>
<line x1="418" y1="75" x2="435" y2="75" stroke="#dc2626" stroke-width="2.5"/>
<text x="442" y="79" font-size="11" fill="#333" font-family="Helvetica,Arial,sans-serif">Best Fitness</text>
</svg>