<svg xmlns="http://www.w3.org/2000/svg" viewBox="0 0 650 700" width="650" height="700">
<rect width="650" height="700" fill="white"/>
<g transform="translate(0,0)">
<rect x="70" y="40" width="550" height="255" fill="#fafafa" stroke="#ccc" stroke-width="1"/>
<line x1="70.0" y1="40" x2="70.0" y2="295" stroke="#e5e7eb" stroke-width="0.5"/>
<text x="70.0" y="310" text-anchor="middle" font-size="11" fill="#555" font-family="Helvetica,Arial,sans-serif">1</text>
<line x1="180.0" y1="40" x2="180.0" y2="295" stroke="#e5e7eb" stroke-width="0.5"/>
<text x="180.0" y="310" text-anchor="middle" font-size="11" fill="#555" font-family="Helvetica,Arial,sans-serif">1.1</text>
<line x1="290.0" y1="40" x2="290.0" y2="295" stroke="#e5e7eb" stroke-width="0.5"/>
<text x="290.0" y="310" text-anchor="middle" font-size="11" fill="#555" font-family="Helvetica,Arial,sans-serif">1.2</text>
<line x1="400.0" y1="40" x2="400.0" y2="295" stroke="#e5e7eb" stroke-width="0.5"/>
<text x="400.0" y="310" text-anchor="middle" font-size="11" fill="#555" font-family="Helvetica,Arial,sans-serif">1.3</text>
<line x1="510.0" y1="40" x2="510.0" y2="295" stroke="#e5e7eb" stroke-width="0.5"/>
<text x="510.0" y="310" text-anchor="middle" font-size="11" fill="#555" font-family="Helvetica,Arial,sans-serif">1.4</text>
<line x1="620.0" y1="40" x2="620.0" y2="295" stroke="#e5e7eb" stroke-width="0.5"/>
<text x="620.0" y="310" text-anchor="middle" font-size="11" fill="#555" font-family="Helvetica,Arial,sans-serif">1.5</text>
<line x1="70" y1="295.0" x2="620" y2="295.0" stroke="#e5e7eb" stroke-width="0.5"/>
<text x="62" y="299.0" text-anchor="end" font-size="11" fill="#555" font-family="Helvetica,Arial,sans-serif">0</text>
<line x1="70" y1="244.0" x2="620" y2="244.0" stroke="#e5e7eb" stroke-width="0.5"/>
<text x="62" y="248.0" text-anchor="end" font-size="11" fill="#555" font-family="Helvetica,Arial,sans-serif">4.6</text>
<line x1="70" y1="193.0" x2="620" y2="193.0" stroke="#e5e7eb" stroke-width="0.5"/>
<text x="62" y="197.0" text-anchor="end" font-size="11" fill="#555" font-family="Helvetica,Arial,sans-serif">9.3</text>
<line x1="70" y1="142.0" x2="620" y2="142.0" stroke="#e5e7eb" stroke-width="0.5"/>
<text x="62" y="146.0" text-anchor="end" font-size="11" fill="#555" font-family="Helvetica,Arial,sans-serif">14</text>
<line x1="70" y1="91.0" x2="620" y2="91.0" stroke="#e5e7eb" stroke-width="0.5"/>
<text x="62" y="95.0" text-anchor="end" font-size="11" fill="#555" font-family="Helvetica,Arial,sans-serif">19</text>
<line x1="70" y1="40.0" x2="620" y2="40.0" stroke="#e5e7eb" stroke-width="0.5"/>
<text x="62" y="44.0" text-anchor="end" font-size="11" fill="#555" font-family="Helvetica,Arial,sans-serif">23</text>
<rect x="70" y="40" width="550" height="255" fill="none" stroke="#333" stroke-width="1.5"/>
<text x="345.0" y="337" text-anchor="middle" font-size="13" font-weight="bold" fill="#333" font-family="Helvetica,Arial,sans-serif">Stretch</text>
<text x="20" y="167.5" text-anchor="middle" font-size="13" font-weight="bold" fill="#333" font-family="Helvetica,Arial,sans-serif" transform="rotate(-90,20,167.5)">Normal Cauchy Stress</text>
<text x="345.0" y="28" text-anchor="middle" font-size="15" font-weight="bold" fill="#222" font-family="Helvetica,Arial,sans-serif">Monotonic Loading: Tension</text>
<polyline points="70.0,295.0 72.8,294.7 75.5,294.4 78.3,294.2 81.1,293.9 83.8,293.6 86.6,293.3 89.3,293.0 92.1,292.8 94.9,292.5 97.6,292.2 100.4,291.9 103.2,291.6 105.9,291.3 108.7,291.0 111.5,290.7 114.2,290.5 117.0,290.2 119.7,289.9 122.5,289.6 125.3,289.3 128.0,289.0 130.8,288.7 133.6,288.4 136.3,288.1 139.1,287.8 141.9,287.5 144.6,287.1 147.4,286.8 150.2,286.5 152.9,286.2 155.7,285.9 158.4,285.6 161.2,285.3 164.0,284.9 166.7,284.6 169.5,284.3 172.3,284.0 175.0,283.7 177.8,283.3 180.6,283.0 183.3,282.7 186.1,282.3 188.8,282.0 191.6,281.6 194.4,281.3 197.1,281.0 199.9,280.6 202.7,280.3 205.4,279.9 208.2,279.6 211.0,279.2 213.7,278.8 216.5,278.5 219.2,278.1 222.0,277.7 224.8,277.4 227.5,277.0 230.3,276.6 233.1,276.2 235.8,275.9 238.6,275.5 241.4,275.1 244.1,274.7 246.9,274.3 249.6,273.9 252.4,273.5 255.2,273.1 257.9,272.6 260.7,272.2 263.5,271.8 266.2,271.4 269.0,271.0 271.8,270.5 274.5,270.1 277.3,269.6 280.1,269.2 282.8,268.7 285.6,268.3 288.3,267.8 291.1,267.3 293.9,266.9 296.6,266.4 299.4,265.9 302.2,265.4 304.9,264.9 307.7,264.4 310.5,263.9 313.2,263.4 316.0,262.9 318.7,262.3 321.5,261.8 324.3,261.3 327.0,260.7 329.8,260.2 332.6,259.6 335.3,259.0 338.1,258.5 340.9,257.9 343.6,257.3 346.4,256.7 349.1,256.1 351.9,255.4 354.7,254.8 357.4,254.2 360.2,253.5 363.0,252.9 365.7,252.2 368.5,251.5 371.3,250.8 374.0,250.1 376.8,249.4 379.5,248.7 382.3,247.9 385.1,247.2 387.8,246.4 390.6,245.7 393.4,244.9 396.1,244.1 398.9,243.3 401.7,242.4 404.4,241.6 407.2,240.7 409.9,239.9 412.7,239.0 415.5,238.1 418.2,237.2 421.0,236.2 423.8,235.3 426.5,234.3 429.3,233.3 432.1,232.3 434.8,231.3 437.6,230.2 440.4,229.1 443.1,228.0 445.9,226.9 448.6,225.8 451.4,224.6 454.2,223.5 456.9,222.2 459.7,221.0 462.5,219.8 465.2,218.5 468.0,217.2 470.8,215.8 473.5,214.4 476.3,213.0 479.0,211.6 481.8,210.2 484.6,208.7 487.3,207.1 490.1,205.6 492.9,204.0 495.6,202.3 498.4,200.7 501.2,198.9 503.9,197.2 506.7,195.4 509.4,193.6 512.2,191.7 515.0,189.8 517.7,187.8 520.5,185.8 523.3,183.7 526.0,181.6 528.8,179.4 531.6,177.2 534.3,174.9 537.1,172.6 539.8,170.2 542.6,167.7 545.4,165.2 548.1,162.6 550.9,159.9 553.7,157.2 556.4,154.4 559.2,151.5 562.0,148.5 564.7,145.5 567.5,142.4 570.3,139.2 573.0,135.9 575.8,132.5 578.5,129.0 581.3,125.5 584.1,121.8 586.8,118.0 589.6,114.1 592.4,110.1 595.1,106.0 597.9,101.8 600.7,97.5 603.4,93.0 606.2,88.4 608.9,83.6 611.7,78.7 614.5,73.7 617.2,68.5 620.0,63.2" fill="none" stroke="#2563eb" stroke-width="2" stroke-linecap="round" stroke-linejoin="round"/>
<polyline points="70.0,295.0 72.8,294.6 75.5,294.3 78.3,293.9 81.1,293.5 83.8,293.2 86.6,292.8 89.3,292.4 92.1,292.1 94.9,291.7 97.6,291.4 100.4,291.0 103.2,290.7 105.9,290.3 108.7,290.0 111.5,289.6 114.2,289.3 117.0,288.9 119.7,288.6 122.5,288.2 125.3,287.9 128.0,287.6 130.8,287.2 133.6,286.9 136.3,286.6 139.1,286.2 141.9,285.9 144.6,285.6 147.4,285.2 150.2,284.9 152.9,284.6 155.7,284.3 158.4,283.9 161.2,283.6 164.0,283.3 166.7,282.9 169.5,282.6 172.3,282.3 175.0,282.0 177.8,281.7 180.6,281.3 183.3,281.0 186.1,280.7 188.8,280.4 191.6,280.1 194.4,279.7 197.1,279.4 199.9,279.1 202.7,278.8 205.4,278.5 208.2,278.2 211.0,277.8 213.7,277.5 216.5,277.2 219.2,276.9 222.0,276.6 224.8,276.2 227.5,275.9 230.3,275.6 233.1,275.3 235.8,275.0 238.6,274.7 241.4,274.3 244.1,274.0 246.9,273.7 249.6,273.4 252.4,273.1 255.2,272.7 257.9,272.4 260.7,272.1 263.5,271.8 266.2,271.4 269.0,271.1 271.8,270.8 274.5,270.5 277.3,270.1 280.1,269.8 282.8,269.5 285.6,269.2 288.3,268.8 291.1,268.5 293.9,268.2 296.6,267.8 299.4,267.5 302.2,267.1 304.9,266.8 307.7,266.5 310.5,266.1 313.2,265.8 316.0,265.4 318.7,265.1 321.5,264.7 324.3,264.4 327.0,264.0 329.8,263.7 332.6,263.3 335.3,262.9 338.1,262.6 340.9,262.2 343.6,261.8 346.4,261.5 349.1,261.1 351.9,260.7 354.7,260.3 357.4,259.9 360.2,259.6 363.0,259.2 365.7,258.8 368.5,258.4 371.3,258.0 374.0,257.6 376.8,257.2 379.5,256.8 382.3,256.3 385.1,255.9 387.8,255.5 390.6,255.1 393.4,254.6 396.1,254.2 398.9,253.8 401.7,253.3 404.4,252.9 407.2,252.4 409.9,251.9 412.7,251.5 415.5,251.0 418.2,250.5 421.0,250.0 423.8,249.5 426.5,249.0 429.3,248.5 432.1,248.0 434.8,247.5 437.6,247.0 440.4,246.4 443.1,245.9 445.9,245.3 448.6,244.8 451.4,244.2 454.2,243.6 456.9,243.1 459.7,242.5 462.5,241.9 465.2,241.2 468.0,240.6 470.8,240.0 473.5,239.3 476.3,238.7 479.0,238.0 481.8,237.4 484.6,236.7 487.3,236.0 490.1,235.2 492.9,234.5 495.6,233.8 498.4,233.0 501.2,232.3 503.9,231.5 506.7,230.7 509.4,229.9 512.2,229.0 515.0,228.2 517.7,227.3 520.5,226.4 523.3,225.5 526.0,224.6 528.8,223.7 531.6,222.7 534.3,221.7 537.1,220.7 539.8,219.7 542.6,218.6 545.4,217.6 548.1,216.5 550.9,215.3 553.7,214.2 556.4,213.0 559.2,211.8 562.0,210.6 564.7,209.3 567.5,208.0 570.3,206.7 573.0,205.3 575.8,203.9 578.5,202.5 581.3,201.0 584.1,199.5 586.8,198.0 589.6,196.4 592.4,194.8 595.1,193.1 597.9,191.4 600.7,189.7 603.4,187.9 606.2,186.0 608.9,184.1 611.7,182.2 614.5,180.1 617.2,178.1 620.0,175.9" fill="none" stroke="#dc2626" stroke-width="2" stroke-linecap="round" stroke-linejoin="round"/>
<rect x="460" y="43" width="150" height="50" fill="white" fill-opacity="0.9" stroke="#ccc" rx="3"/>
<line x1="468" y1="55" x2="485" y2="55" stroke="#2563eb" stroke-width="2.5"/>
<text x="492" y="59" font-size="11" fill="#333" font-family="Helvetica,Arial,sans-serif">Uniaxial</text>
<line x1="468" y1="75" x2="485" y2="75" stroke="#dc2626" stroke-width="2.5"/>
<text x="492" y="79" font-size="11" fill="#333" font-family="Helvetica,Arial,sans-serif">Equibiaxial</text>
</g>
<g transform="translate(0,350)">
<rect x="70" y="40" width="550" height="255" fill="#fafafa" stroke="#ccc" stroke-width="1"/>
<line x1="70.0" y1="40" x2="70.0" y2="295" stroke="#e5e7eb" stroke-width="0.5"/>
<text x="70.0" y="310" text-anchor="middle" font-size="11" fill="#555" font-family="Helvetica,Arial,sans-serif">-0.6</text>
<line x1="180.0" y1="40" x2="180.0" y2="295" stroke="#e5e7eb" stroke-width="0.5"/>
<text x="180.0" y="310" text-anchor="middle" font-size="11" fill="#555" font-family="Helvetica,Arial,sans-serif">-0.36</text>
<line x1="290.0" y1="40" x2="290.0" y2="295" stroke="#e5e7eb" stroke-width="0.5"/>
<text x="290.0" y="310" text-anchor="middle" font-size="11" fill="#555" font-family="Helvetica,Arial,sans-serif">-0.12</text>
<line x1="400.0" y1="40" x2="400.0" y2="295" stroke="#e5e7eb" stroke-width="0.5"/>
<text x="400.0" y="310" text-anchor="middle" font-size="11" fill="#555" font-family="Helvetica,Arial,sans-serif">0.12</text>
<line x1="510.0" y1="40" x2="510.0" y2="295" stroke="#e5e7eb" stroke-width="0.5"/>
<text x="510.0" y="310" text-anchor="middle" font-size="11" fill="#555" font-family="Helvetica,Arial,sans-serif">0.36</text>
<line x1="620.0" y1="40" x2="620.0" y2="295" stroke="#e5e7eb" stroke-width="0.5"/>
<text x="620.0" y="310" text-anchor="middle" font-size="11" fill="#555" font-family="Helvetica,Arial,sans-serif">0.6</text>
<line x1="70" y1="295.0" x2="620" y2="295.0" stroke="#e5e7eb" stroke-width="0.5"/>
<text x="62" y="299.0" text-anchor="end" font-size="11" fill="#555" font-family="Helvetica,Arial,sans-serif">-1.5</text>
<line x1="70" y1="244.0" x2="620" y2="244.0" stroke="#e5e7eb" stroke-width="0.5"/>
<text x="62" y="248.0" text-anchor="end" font-size="11" fill="#555" font-family="Helvetica,Arial,sans-serif">-0.87</text>
<line x1="70" y1="193.0" x2="620" y2="193.0" stroke="#e5e7eb" stroke-width="0.5"/>
<text x="62" y="197.0" text-anchor="end" font-size="11" fill="#555" font-family="Helvetica,Arial,sans-serif">-0.29</text>
<line x1="70" y1="142.0" x2="620" y2="142.0" stroke="#e5e7eb" stroke-width="0.5"/>
<text x="62" y="146.0" text-anchor="end" font-size="11" fill="#555" font-family="Helvetica,Arial,sans-serif">0.29</text>
<line x1="70" y1="91.0" x2="620" y2="91.0" stroke="#e5e7eb" stroke-width="0.5"/>
<text x="62" y="95.0" text-anchor="end" font-size="11" fill="#555" font-family="Helvetica,Arial,sans-serif">0.87</text>
<line x1="70" y1="40.0" x2="620" y2="40.0" stroke="#e5e7eb" stroke-width="0.5"/>
<text x="62" y="44.0" text-anchor="end" font-size="11" fill="#555" font-family="Helvetica,Arial,sans-serif">1.5</text>
<rect x="70" y="40" width="550" height="255" fill="none" stroke="#333" stroke-width="1.5"/>
<text x="345.0" y="337" text-anchor="middle" font-size="13" font-weight="bold" fill="#333" font-family="Helvetica,Arial,sans-serif">Amount of Shear</text>
<text x="20" y="167.5" text-anchor="middle" font-size="13" font-weight="bold" fill="#333" font-family="Helvetica,Arial,sans-serif" transform="rotate(-90,20,167.5)">Shear Stress</text>
<text x="345.0" y="28" text-anchor="middle" font-size="15" font-weight="bold" fill="#222" font-family="Helvetica,Arial,sans-serif">Monotonic Loading: Shear</text>
<polyline points="70.0,283.4 72.8,282.1 75.5,280.8 78.3,279.4 81.1,278.1 83.8,276.8 86.6,275.5 89.3,274.2 92.1,273.0 94.9,271.7 97.6,270.4 100.4,269.1 103.2,267.9 105.9,266.6 108.7,265.3 111.5,264.1 114.2,262.8 117.0,261.6 119.7,260.3 122.5,259.1 125.3,257.9 128.0,256.6 130.8,255.4 133.6,254.2 136.3,253.0 139.1,251.7 141.9,250.5 144.6,249.3 147.4,248.1 150.2,246.9 152.9,245.7 155.7,244.5 158.4,243.3 161.2,242.1 164.0,240.9 166.7,239.7 169.5,238.5 172.3,237.4 175.0,236.2 177.8,235.0 180.6,233.8 183.3,232.6 186.1,231.5 188.8,230.3 191.6,229.1 194.4,228.0 197.1,226.8 199.9,225.6 202.7,224.5 205.4,223.3 208.2,222.2 211.0,221.0 213.7,219.9 216.5,218.7 219.2,217.6 222.0,216.4 224.8,215.3 227.5,214.1 230.3,213.0 233.1,211.9 235.8,210.7 238.6,209.6 241.4,208.5 244.1,207.3 246.9,206.2 249.6,205.1 252.4,204.0 255.2,202.9 257.9,201.7 260.7,200.6 263.5,199.5 266.2,198.4 269.0,197.3 271.8,196.2 274.5,195.1 277.3,194.0 280.1,192.9 282.8,191.8 285.6,190.7 288.3,189.6 291.1,188.5 293.9,187.4 296.6,186.3 299.4,185.2 302.2,184.1 304.9,183.0 307.7,181.9 310.5,180.9 313.2,179.8 316.0,178.7 318.7,177.6 321.5,176.6 324.3,175.5 327.0,174.4 329.8,173.3 332.6,172.3 335.3,171.2 338.1,170.1 340.9,169.1 343.6,168.0 346.4,167.0 349.1,165.9 351.9,164.9 354.7,163.8 357.4,162.7 360.2,161.7 363.0,160.6 365.7,159.5 368.5,158.4 371.3,157.4 374.0,156.3 376.8,155.2 379.5,154.1 382.3,153.1 385.1,152.0 387.8,150.9 390.6,149.8 393.4,148.7 396.1,147.6 398.9,146.5 401.7,145.4 404.4,144.3 407.2,143.2 409.9,142.1 412.7,141.0 415.5,139.9 418.2,138.8 421.0,137.7 423.8,136.6 426.5,135.5 429.3,134.4 432.1,133.3 434.8,132.1 437.6,131.0 440.4,129.9 443.1,128.8 445.9,127.7 448.6,126.5 451.4,125.4 454.2,124.3 456.9,123.1 459.7,122.0 462.5,120.9 465.2,119.7 468.0,118.6 470.8,117.4 473.5,116.3 476.3,115.1 479.0,114.0 481.8,112.8 484.6,111.7 487.3,110.5 490.1,109.4 492.9,108.2 495.6,107.0 498.4,105.9 501.2,104.7 503.9,103.5 506.7,102.4 509.4,101.2 512.2,100.0 515.0,98.8 517.7,97.6 520.5,96.5 523.3,95.3 526.0,94.1 528.8,92.9 531.6,91.7 534.3,90.5 537.1,89.3 539.8,88.1 542.6,86.9 545.4,85.7 548.1,84.5 550.9,83.3 553.7,82.0 556.4,80.8 559.2,79.6 562.0,78.4 564.7,77.1 567.5,75.9 570.3,74.7 573.0,73.4 575.8,72.2 578.5,70.9 581.3,69.7 584.1,68.4 586.8,67.1 589.6,65.9 592.4,64.6 595.1,63.3 597.9,62.0 600.7,60.8 603.4,59.5 606.2,58.2 608.9,56.9 611.7,55.6 614.5,54.2 617.2,52.9 620.0,51.6" fill="none" stroke="#16a34a" stroke-width="2" stroke-linecap="round" stroke-linejoin="round"/>
<polyline points="70.0,277.7 72.8,276.5 75.5,275.3 78.3,274.2 81.1,273.0 83.8,271.9 86.6,270.7 89.3,269.5 92.1,268.4 94.9,267.2 97.6,266.1 100.4,264.9 103.2,263.8 105.9,262.6 108.7,261.5 111.5,260.3 114.2,259.2 117.0,258.0 119.7,256.9 122.5,255.7 125.3,254.6 128.0,253.5 130.8,252.3 133.6,251.2 136.3,250.1 139.1,248.9 141.9,247.8 144.6,246.7 147.4,245.5 150.2,244.4 152.9,243.3 155.7,242.2 158.4,241.0 161.2,239.9 164.0,238.8 166.7,237.7 169.5,236.5 172.3,235.4 175.0,234.3 177.8,233.2 180.6,232.1 183.3,231.0 186.1,229.8 188.8,228.7 191.6,227.6 194.4,226.5 197.1,225.4 199.9,224.3 202.7,223.2 205.4,222.1 208.2,221.0 211.0,219.9 213.7,218.8 216.5,217.7 219.2,216.6 222.0,215.5 224.8,214.4 227.5,213.3 230.3,212.2 233.1,211.1 235.8,210.0 238.6,208.9 241.4,207.8 244.1,206.7 246.9,205.6 249.6,204.5 252.4,203.4 255.2,202.3 257.9,201.3 260.7,200.2 263.5,199.1 266.2,198.0 269.0,196.9 271.8,195.8 274.5,194.8 277.3,193.7 280.1,192.6 282.8,191.5 285.6,190.4 288.3,189.4 291.1,188.3 293.9,187.2 296.6,186.1 299.4,185.1 302.2,184.0 304.9,182.9 307.7,181.9 310.5,180.8 313.2,179.7 316.0,178.6 318.7,177.6 321.5,176.5 324.3,175.5 327.0,174.4 329.8,173.3 332.6,172.3 335.3,171.2 338.1,170.1 340.9,169.1 343.6,168.0 346.4,167.0 349.1,165.9 351.9,164.9 354.7,163.8 357.4,162.7 360.2,161.7 363.0,160.6 365.7,159.5 368.5,158.5 371.3,157.4 374.0,156.4 376.8,155.3 379.5,154.2 382.3,153.1 385.1,152.1 387.8,151.0 390.6,149.9 393.4,148.9 396.1,147.8 398.9,146.7 401.7,145.6 404.4,144.6 407.2,143.5 409.9,142.4 412.7,141.3 415.5,140.2 418.2,139.2 421.0,138.1 423.8,137.0 426.5,135.9 429.3,134.8 432.1,133.7 434.8,132.7 437.6,131.6 440.4,130.5 443.1,129.4 445.9,128.3 448.6,127.2 451.4,126.1 454.2,125.0 456.9,123.9 459.7,122.8 462.5,121.7 465.2,120.6 468.0,119.5 470.8,118.4 473.5,117.3 476.3,116.2 479.0,115.1 481.8,114.0 484.6,112.9 487.3,111.8 490.1,110.7 492.9,109.6 495.6,108.5 498.4,107.4 501.2,106.3 503.9,105.2 506.7,104.0 509.4,102.9 512.2,101.8 515.0,100.7 517.7,99.6 520.5,98.5 523.3,97.3 526.0,96.2 528.8,95.1 531.6,94.0 534.3,92.8 537.1,91.7 539.8,90.6 542.6,89.5 545.4,88.3 548.1,87.2 550.9,86.1 553.7,84.9 556.4,83.8 559.2,82.7 562.0,81.5 564.7,80.4 567.5,79.3 570.3,78.1 573.0,77.0 575.8,75.8 578.5,74.7 581.3,73.5 584.1,72.4 586.8,71.2 589.6,70.1 592.4,68.9 595.1,67.8 597.9,66.6 600.7,65.5 603.4,64.3 606.2,63.1 608.9,62.0 611.7,60.8 614.5,59.7 617.2,58.5 620.0,57.3" fill="none" stroke="#9333ea" stroke-width="2" stroke-linecap="round" stroke-linejoin="round"/>
<rect x="460" y="43" width="150" height="50" fill="white" fill-opacity="0.9" stroke="#ccc" rx="3"/>
<line x1="468" y1="55" x2="485" y2="55" stroke="#16a34a" stroke-width="2.5"/>
<text x="492" y="59" font-size="11" fill="#333" font-family="Helvetica,Arial,sans-serif">Pure Shear</text>
<line x1="468" y1="75" x2="485" y2="75" stroke="#9333ea" stroke-width="2.5"/>
<text x="492" y="79" font-size="11" fill="#333" font-family="Helvetica,Arial,sans-serif">Simple Shear</text>
</g>
</svg>